<svg xmlns="http://www.w3.org/2000/svg" width="80" height="70" viewBox="0 0 80 70">
    <g fill="none" fill-rule="evenodd">
        <path fill="#00B5DB" fill-rule="nonzero" d="M67.912 17.392h-6.111C60.262 11.98 55.286 8 49.387 8s-10.875 3.98-12.413 9.392H29.33l-.384-1.314a4.72 4.72 0 0 0-4.508-3.382h-3.228a1.173 1.173 0 1 0 0 2.348h3.228c1.038 0 1.964.695 2.254 1.691l7.308 25.055-3.744 4.68a3.795 3.795 0 0 0-.828 2.362 3.785 3.785 0 0 0 3.78 3.78h32.614a1.173 1.173 0 1 0 0-2.347H33.21a1.435 1.435 0 0 1-1.119-2.329l3.773-4.715h23.028a4.717 4.717 0 0 0 4.25-2.697l8.193-17.41a3.812 3.812 0 0 0 .359-1.608v-.333a3.785 3.785 0 0 0-3.782-3.78zm1.433 4.114c0 .21-.047.42-.136.61l-8.192 17.408a2.36 2.36 0 0 1-2.125 1.349H36.179L30.015 19.74h6.517c-.035.387-.059.778-.059 1.174 0 7.121 5.793 12.914 12.914 12.914 7.121 0 12.914-5.793 12.914-12.914 0-.396-.024-.786-.06-1.174h5.671c.79 0 1.434.643 1.434 1.433v.333zM34.125 54.96a4.7 4.7 0 0 0-4.696 4.697 4.7 4.7 0 0 0 4.696 4.696 4.7 4.7 0 0 0 4.696-4.696 4.7 4.7 0 0 0-4.696-4.696zm0 7.045a2.351 2.351 0 0 1-2.348-2.348 2.351 2.351 0 0 1 2.348-2.348 2.351 2.351 0 0 1 2.348 2.348 2.351 2.351 0 0 1-2.348 2.348zM62.301 54.96a4.7 4.7 0 0 0-4.696 4.697 4.7 4.7 0 0 0 4.696 4.696 4.7 4.7 0 0 0 4.696-4.696 4.7 4.7 0 0 0-4.696-4.696zm0 7.045a2.351 2.351 0 0 1-2.348-2.348 2.351 2.351 0 0 1 2.348-2.348 2.351 2.351 0 0 1 2.348 2.348 2.351 2.351 0 0 1-2.348 2.348z"/>
        <path fill="#E9E9E9" d="M50.354 10.414c6.911 0 12.533 5.622 12.533 12.533S57.265 35.48 50.354 35.48s-12.533-5.622-12.533-12.533c0-6.91 5.622-12.533 12.533-12.533z" style="mix-blend-mode:multiply"/>
        <path fill="#00B5DB" d="M49.29 8.27c7.026 0 12.742 5.715 12.742 12.742 0 7.026-5.716 12.742-12.742 12.742-7.027 0-12.743-5.716-12.743-12.742 0-7.027 5.716-12.742 12.743-12.742z"/>
        <path fill="#FFF" fill-rule="nonzero" d="M48.557 28.788a1.17 1.17 0 0 0 1.66 0l4.696-4.696a1.173 1.173 0 1 0-1.66-1.66l-2.692 2.692V13.87a1.173 1.173 0 1 0-2.348 0v11.254l-2.692-2.692a1.173 1.173 0 1 0-1.66 1.66l4.696 4.696z"/>
    </g>
</svg>
