<svg xmlns="http://www.w3.org/2000/svg" width="80" height="70" viewBox="0 0 80 70">
    <path fill="#00B5DB" fill-rule="nonzero" d="M70.59 53.948c-5.506-2.92-9.73-4.558-13.49-5.186l.39-.535c.184-.184.276-.461.184-.738l-.865-3.458c.313-.443.609-.901.886-1.372 3.438-1.17 5.177-3.149 5.469-6.06 1.51-.08 2.813-1.428 2.813-2.95v-6.92c0-1.514-1.205-2.857-2.784-2.947C62.99 18.452 60.64 8 45.68 8 30.72 8 28.37 18.453 28.165 23.783c-1.498.088-2.784 1.346-2.784 2.947v6.92c0 1.568 1.384 2.952 3.045 2.952h1.384c.508 0 .997-.146 1.423-.397a20.177 20.177 0 0 0 3.317 7.826l-.865 3.458c0 .185 0 .461.185.738l.389.535c-3.76.628-7.984 2.265-13.491 5.185-1.753.831-2.768 2.584-2.768 4.521v3.968c0 .554.369.923.923.923H72.436c.553 0 .922-.37.922-.923v-3.967c0-1.846-1.107-3.599-2.767-4.521zm-24.906-2.11l2.21 5.062h-4.46l2.25-5.063zm-2.92 6.907h5.827l.54 2.768h-6.92l.553-2.768zm12.603-12.917l.369 1.661-.942 1.294a.823.823 0 0 0-.165.182L50.79 54.28l-1.218 1.672-2.487-5.596c3.034-.37 5.735-1.916 7.901-4.132.128-.129.255-.26.38-.395zm3.603-5.74c.52-1.265.912-2.581 1.16-3.908a2.9 2.9 0 0 0 1.183.403c-.16 1.304-.74 2.536-2.343 3.506zm5.07-13.45v6.92c0 .553-.462 1.106-1.107 1.106h-1.384c-.554 0-1.107-.461-1.107-1.107v-6.92c0-.553.46-1.107 1.107-1.107h1.384c.553 0 1.107.462 1.107 1.107zM45.68 9.844c5.686 0 15.257 1.857 15.669 13.947-.387.04-.757.157-1.092.338-1.123-7.026-7.248-12.44-14.578-12.44-7.328 0-13.453 5.413-14.577 12.437a2.897 2.897 0 0 0-1.092-.335c.411-12.09 9.982-13.947 15.67-13.947zM30.824 33.557c0 .554-.462 1.107-1.107 1.107h-1.384c-.554 0-1.108-.461-1.108-1.107v-6.92c0-.553.462-1.107 1.108-1.107h1.384c.553 0 1.107.462 1.107 1.107v6.92zm1.937-7.104c0-7.105 5.813-12.917 12.917-12.917 7.105 0 12.917 5.812 12.917 12.917v6.458c0 3.053-.794 5.847-2.083 8.205-2.202.64-5.37 1.022-9.911 1.022-.554 0-.923.369-.923.922 0 .554.37.923.923.923 3.324 0 6.104-.204 8.381-.631l-.17.17a15.468 15.468 0 0 1-1.465 1.692c-2.173 2.024-4.764 3.25-7.261 3.371a1.04 1.04 0 0 0-.408-.081.883.883 0 0 0-.384.082c-1.528-.07-3.093-.554-4.575-1.383-1.502-.863-2.915-2.107-4.175-3.681l-.277-.277-.054-.018a16.999 16.999 0 0 1-3.452-10.316v-6.458zm11.51 23.902l-2.487 5.596-1.218-1.672-3.837-5.314a1.606 1.606 0 0 0-.096-.087l-1.012-1.389.37-1.66c.124.134.251.265.379.394 2.166 2.215 4.868 3.762 7.901 4.132zm-24.427 8.113c0-1.199.646-2.306 1.753-2.86 5.881-3.124 10.115-4.692 13.886-5.16l5.506 7.57-.699 3.495H19.845v-3.045zm51.668 3.045H51.068l-.7-3.495 5.566-7.653c3.758.568 8.068 2.135 13.826 5.151 1.108.646 1.753 1.753 1.753 2.952v3.045z"/>
</svg>
