<svg xmlns="http://www.w3.org/2000/svg" width="80" height="70" viewBox="0 0 80 70">
    <g fill="#00B5DB" fill-rule="nonzero">
        <path d="M71.208 8H43.785c-.015 0-.028.009-.043.009a1.027 1.027 0 0 0-.334.067c-.011.004-.024.005-.035.01-.004.001-.008.001-.011.004l-6.596 2.93-6.596-2.93-.01-.004c-.012-.005-.025-.006-.036-.01a.995.995 0 0 0-.332-.067c-.015 0-.029-.009-.044-.009H22.21a1.04 1.04 0 0 0-1.04 1.04v48.737c0 .574.466 1.04 1.04 1.04h7.253l6.772 4.012.009.004.006.005c.05.028.104.044.156.064.03.012.06.028.09.039a1.088 1.088 0 0 0 .537 0c.03-.01.057-.027.086-.037.054-.019.11-.036.16-.065.002 0 .004-.003.007-.005.002-.002.005-.002.008-.003l6.773-4.014h27.137a1.04 1.04 0 0 0 1.04-1.04V9.04A1.036 1.036 0 0 0 71.208 8zM23.25 10.08h5.458v46.657h-5.458V10.079zm7.538.559l4.939 2.195V60.11l-4.94-2.927V10.64zm7.018 2.195l4.939-2.194v46.545l-4.94 2.927V12.834zm32.361 43.903H44.825V10.079h25.343v46.658z"/>
        <path d="M56.652 43.805c.366 0 .705-.194.892-.507.794-1.332 7.751-13.134 7.751-17.493 0-4.765-3.877-8.643-8.643-8.643-4.767 0-8.644 3.877-8.644 8.643 0 4.36 6.956 16.161 7.75 17.493.188.314.527.507.894.507zm0-24.564a6.571 6.571 0 0 1 6.564 6.564c0 2.816-4.147 10.664-6.564 14.894-2.417-4.23-6.565-12.078-6.565-14.894.003-3.62 2.945-6.564 6.565-6.564z"/>
        <path d="M60.29 25.675a3.644 3.644 0 0 0-3.638-3.639 3.643 3.643 0 0 0-3.64 3.64 3.642 3.642 0 0 0 3.64 3.638 3.643 3.643 0 0 0 3.639-3.639zm-5.198 0c0-.86.7-1.56 1.56-1.56.86 0 1.56.7 1.56 1.56 0 .86-.7 1.56-1.56 1.56-.86 0-1.56-.7-1.56-1.56z"/>
    </g>
</svg>
