<svg xmlns="http://www.w3.org/2000/svg" width="80" height="70" viewBox="0 0 80 70">
    <g fill="none" fill-rule="evenodd">
        <g fill="#00B5DB">
            <path fill-rule="nonzero" d="M68.331 9H19.405c.024 0 0 .614 0 1.365s.047 1.366 0 1.366h2.947V63.535l8.044-5.416 6.621 4.537 6.771-4.525 6.785 4.525 6.607-4.514 7.978 4.845.067-51.222h3.106c-.039 0 0-.615 0-1.365 0-.751.012-1.4 0-1.4zm-5.803 49.38l-5.382-3.646-6.644 4.557-6.696-4.557-6.696 4.546-6.755-4.546-5.272 3.636V11.72h37.434l.011 46.66z"/>
            <path d="M30 17h17v3H30v-3zm0 5h17v3H30v-3zm0 6h17v3H30v-3zm0 5h17v3H30v-3zm0 6h17v3H30v-3zm0 5h17v3H30v-3zM51.396 17H58v3h-6.604v-3zm0 5H58v3h-6.604v-3zm0 6H58v3h-6.604v-3zm0 5H58v3h-6.604v-3zm0 6H58v3h-6.604v-3zm0 5H58v3h-6.604v-3z"/>
        </g>
        <g transform="translate(48 39)">
            <circle cx="12.468" cy="12.173" r="11.586" fill="#E9E9E9" style="mix-blend-mode:multiply"/>
            <circle cx="15.32" cy="13.32" r="10.32" fill="#FFF"/>
            <path fill="#00B5DB" fill-rule="nonzero" d="M14.823 1C8.293 1 3 6.294 3 12.823c0 6.53 5.294 11.823 11.823 11.823 6.53 0 11.823-5.293 11.823-11.823S21.353 1 14.823 1zM20.3 9.553l-5.663 8.656-.004.003-.083.137-.178.129-.045.03-.29.122-.1.024-.249.005-.173-.03-.17-.066-.141-.056-.079-.078-.038-.024-3.297-3.049a1.035 1.035 0 0 1 1.404-1.519l2.386 2.208 4.988-7.624A1.034 1.034 0 1 1 20.3 9.553z"/>
        </g>
    </g>
</svg>
