<svg xmlns="http://www.w3.org/2000/svg" width="31" height="31" viewBox="0 0 31 31">
    <g fill="#00B5DB" fill-rule="nonzero">
        <path d="M25.814 4.432A15.018 15.018 0 0 0 15.124.004 15.018 15.018 0 0 0 4.437 4.432 15.015 15.015 0 0 0 .01 14.99a.894.894 0 0 0 0 .245A15.015 15.015 0 0 0 4.435 25.81a15.018 15.018 0 0 0 10.689 4.428c4.038 0 7.834-1.573 10.689-4.428a15.017 15.017 0 0 0 4.428-10.69c0-4.037-1.573-7.833-4.428-10.688zm-.655 19.486l-1.021-.983a.886.886 0 1 0-1.23 1.276l.996.96a13.228 13.228 0 0 1-7.893 3.264v-3.194a.886.886 0 1 0-1.772 0v3.194a13.219 13.219 0 0 1-7.127-2.641l.933-.969a.886.886 0 1 0-1.277-1.23l-1 1.039-.079-.077a13.244 13.244 0 0 1-3.88-8.558h3.187a.886.886 0 1 0 0-1.772H1.81a13.222 13.222 0 0 1 2.942-7.503l1.026.987a.883.883 0 0 0 1.253-.023.886.886 0 0 0-.024-1.253l-1.05-1.011a13.236 13.236 0 0 1 8.282-3.618V5a.886.886 0 1 0 1.772 0V1.806a13.236 13.236 0 0 1 8.27 3.608l-1.013 1.05a.886.886 0 0 0 1.277 1.23l.944-.98a13.222 13.222 0 0 1 2.95 7.513h-3.202a.886.886 0 1 0 0 1.772h3.203a13.227 13.227 0 0 1-3.281 7.919z"/>
        <path d="M20.76 18.539l-4.75-3.848V8.214a.886.886 0 1 0-1.771 0v6.907c0 .313.162.587.407.745l4.998 4.05a.883.883 0 0 0 1.247-.13.886.886 0 0 0-.13-1.247z"/>
    </g>
</svg>
