<svg xmlns="http://www.w3.org/2000/svg" width="41" height="37" viewBox="0 0 41 37">
    <g fill="none" fill-rule="evenodd">
        <path fill="#00B5DB" fill-rule="nonzero" d="M40.9.324H5.547v33.328H40.9V.324zm-1.619 31.71H7.166V1.941h32.115v30.093z"/>
        <path fill="#00B5DB" fill-rule="nonzero" d="M34.792 25.725h2.022v-6.957h-2.022v-3.56h2.022V8.251h-2.022V4.41H9.633v25.158h25.159v-3.842zm.404-1.618h-2.305v-3.722h2.305v3.722zm0-10.517h-2.305V9.87h2.305v3.72zM11.251 27.95V6.026h21.923V8.25h-1.901v6.957h1.9v3.56h-1.9v6.957h1.9v2.224H11.252z"/>
        <path fill="#00B5DB" fill-rule="nonzero" d="M21 10.759a6.229 6.229 0 1 0 0 12.458 6.229 6.229 0 0 0 0-12.458zm.808 10.759v-2.225H20.19v2.225a4.611 4.611 0 0 1-3.68-3.56h2.345v-1.617H16.43a4.611 4.611 0 0 1 3.761-3.924v2.589h1.618v-2.548a4.611 4.611 0 0 1 3.762 3.923h-2.427V18h2.346a4.611 4.611 0 0 1-3.681 3.519z"/>
        <path fill="#E9E9E9" d="M3.904 15.767h12.611v5.064l-3.877 4.946 3.877 4.956v3.004H3.905v-3.004l4.12-4.956-4.12-4.946z" style="mix-blend-mode:multiply"/>
        <path fill="#FFF" d="M.904 15.767h12.611v5.064l-3.877 4.946 3.877 4.956v4.885H.905v-4.885l4.12-4.956-4.12-4.946z"/>
        <path fill="#00B5DB" fill-rule="nonzero" d="M.745 15h12.811c.33 0 .596.267.596.596v5.329c0 .137-.047.27-.134.376l-3.645 4.48 3.643 4.426c.088.106.136.24.136.379v5.27c0 .329-.267.595-.596.595H.745a.596.596 0 0 1-.596-.596v-5.27c0-.138.048-.272.136-.378l3.642-4.426-3.644-4.48a.596.596 0 0 1-.134-.376v-5.33c0-.328.267-.595.596-.595zm11.917 1.49H1.64v4.117l4.06 4.99c.089.11.089.268-.002.377L1.64 30.906v4.056h11.023v-4.056l-4.059-4.932a.298.298 0 0 1 0-.377l4.06-4.99V16.49z"/>
        <path fill="#00B5DB" fill-rule="nonzero" d="M10.93 20.677L7.813 24.53a.875.875 0 0 1-.493.32.819.819 0 0 1-.807-.287l-3.142-3.886a.298.298 0 0 1 .232-.486h7.094c.25 0 .389.29.231.486zM2.98 33.62v-1.555c0-.126.079-.238.197-.28l3.572-1.277c.26-.093.543-.093.802 0l3.572 1.277a.298.298 0 0 1 .198.28v1.555H2.98z"/>
    </g>
</svg>
