<svg xmlns="http://www.w3.org/2000/svg" width="80" height="70" viewBox="0 0 80 70">
    <g fill="none" fill-rule="evenodd">
        <path fill="#00B5DB" fill-rule="nonzero" d="M78.629 28.886L60.347 10.774l-7.505 7.33c-1.532 1.328-2.917 1.472-4.67 1.654-.935.098-1.9.198-2.958.494-.784.219-1.469.444-2.08.68L32.91 10.774 14.629 28.886l9.463 9.406c-.154.112-.307.223-.446.36l-1.028 1.019a3.714 3.714 0 0 0-1.107 2.657 3.71 3.71 0 0 0 1.106 2.655l.255.253a3.783 3.783 0 0 0 2.682 1.098c.067 0 .13-.016.196-.019a3.718 3.718 0 0 0 1.09 2.853l.254.25a3.8 3.8 0 0 0 2.682 1.1c.066 0 .13-.016.196-.02-.003.066-.018.129-.018.194a3.71 3.71 0 0 0 1.106 2.656l.255.253a3.783 3.783 0 0 0 2.681 1.097c.067 0 .13-.015.196-.019a3.715 3.715 0 0 0 1.089 2.851l.255.253a3.798 3.798 0 0 0 2.682 1.099c.971 0 1.942-.367 2.682-1.099l.877-.869a3.76 3.76 0 0 0 .496-.614l4.352 4.323a3.98 3.98 0 0 0 2.809 1.15 3.978 3.978 0 0 0 2.808-1.15 3.892 3.892 0 0 0 1.135-3.06c.093.007.183.027.278.027 1.063 0 2.06-.408 2.808-1.149a3.888 3.888 0 0 0 1.16-2.782c0-.095-.02-.185-.027-.278.094.006.184.027.28.027a3.962 3.962 0 0 0 2.809-1.15 3.888 3.888 0 0 0 1.16-2.782c0-.093-.021-.182-.027-.275.093.007.186.027.28.027a3.979 3.979 0 0 0 2.807-1.151 3.887 3.887 0 0 0 1.161-2.782 3.89 3.89 0 0 0-1.16-2.784l-.027-.027 13.75-13.598zM60.347 13.54l15.49 15.346-4.596 4.552-15.49-15.345 4.596-4.553zm-27.437 0l4.595 4.553-15.49 15.346-4.594-4.553L32.91 13.54zm-8.64 30.314l-.256-.253a1.778 1.778 0 0 1-.528-1.273c0-.483.188-.936.528-1.274l1.028-1.018c.354-.35.82-.527 1.285-.527.466 0 .932.176 1.287.529l.253.25c.341.338.53.79.53 1.274 0 .483-.188.935-.53 1.273l-1.027 1.018c-.683.677-1.89.676-2.57.001zm4.22 4.18l-.254-.25a1.792 1.792 0 0 1 0-2.548l1.027-1.018 1.948-1.93c.354-.35.82-.525 1.285-.525.466 0 .931.174 1.285.525l.255.253c.341.338.529.79.529 1.273 0 .484-.188.936-.529 1.274l-.977.968-1.998 1.98a1.832 1.832 0 0 1-2.572-.002zm4.222 4.185l-.255-.253a1.778 1.778 0 0 1-.529-1.274c0-.483.188-.935.529-1.273l1.998-1.98a1.813 1.813 0 0 1 1.286-.524c.488 0 .944.186 1.286.525l.254.25c.34.338.528.791.528 1.274 0 .484-.187.936-.528 1.274l-1.999 1.98c-.682.676-1.89.675-2.57 0zm7.669 3.312l-.877.87a1.834 1.834 0 0 1-2.57 0l-.256-.253a1.792 1.792 0 0 1 0-2.547l.878-.87c.354-.351.82-.527 1.286-.527.465 0 .93.176 1.284.527l.255.253c.341.338.529.79.529 1.273 0 .483-.188.936-.53 1.274zm23.129-8.837a2.013 2.013 0 0 1-2.825 0l-3.858-3.822a.994.994 0 0 0-1.396 0 .971.971 0 0 0 0 1.383l3.858 3.822a1.968 1.968 0 0 1 0 2.799 2.014 2.014 0 0 1-2.826 0l-3.857-3.822a.994.994 0 0 0-1.396 0 .971.971 0 0 0 0 1.383l3.857 3.822c.375.371.582.868.582 1.4 0 .53-.207 1.028-.582 1.4a2.013 2.013 0 0 1-2.825 0l-3.858-3.823a.994.994 0 0 0-1.396 0 .971.971 0 0 0 0 1.383l3.858 3.822a1.97 1.97 0 0 1 0 2.8 2.014 2.014 0 0 1-2.824 0L42.948 54.2c-.022-.022-.05-.03-.074-.049a3.705 3.705 0 0 0-1.096-2.55l-.255-.252a3.709 3.709 0 0 0-2.007-1.001 3.734 3.734 0 0 0-.84-4.042l-.253-.25c-.574-.569-1.323-.898-2.106-1.01.137-.392.222-.803.222-1.232a3.71 3.71 0 0 0-1.106-2.655l-.255-.253c-1.353-1.34-3.47-1.44-4.955-.33a3.707 3.707 0 0 0-.96-1.672l-.254-.25a3.792 3.792 0 0 0-2.87-1.082l.006-.006-2.74-2.737 15.493-15.35 2.343 2.34c-1.535.873-2.571 1.914-3.926 3.281-.297.3-3.24 3.22-3.24 3.22a3.914 3.914 0 0 0 0 5.566 3.977 3.977 0 0 0 2.81 1.15 3.977 3.977 0 0 0 2.808-1.15l3.901-3.865c.922-.914 3.204.11 5.849 1.297.826.37 1.7.761 2.611 1.13.039.06.066.125.118.177l11.339 11.27c.375.371.581.868.581 1.399s-.207 1.029-.582 1.4zm-.025-5.596l-7.385-7.34c1.892.42 3.874.544 5.889.08a.978.978 0 0 0 .739-1.173.99.99 0 0 0-1.185-.732c-3.927.9-7.838-.85-11.287-2.397-3.31-1.485-6.17-2.768-8.058-.898l-3.901 3.865a2.013 2.013 0 0 1-2.825 0 1.97 1.97 0 0 1 0-2.8s2.95-2.928 3.252-3.233c2.165-2.185 3.251-3.281 7.026-4.336.895-.25 1.776-.341 2.628-.43 1.849-.193 3.76-.391 5.764-2.126l.169-.147 15.533 15.39-6.359 6.277z"/>
        <path fill="#E9E9E9" d="M34.201 34c.604 2.137 1.553 3.407 2.847 3.81 1.941.606 3.864-.203 4.416-.695.369-.327 1.477-1.424 3.325-3.29.886-.876 1.605-1.27 2.159-1.182.554.087 2.264.436 5.13 1.044l2.075.898-2.075-2.074-4.354-1.953c-1.92-.846-3.213-1.081-3.882-.706-1.004.562-1.195 1.127-1.936 1.838-.494.474-1.274 1.244-2.34 2.31-.99.757-1.887 1.108-2.69 1.056-1.207-.079-1.591-.29-1.849-.471-.172-.12-.447-.315-.826-.584z" style="mix-blend-mode:multiply"/>
    </g>
</svg>
