<svg xmlns="http://www.w3.org/2000/svg" width="285" height="54" viewBox="0 0 285 54">
    <g fill="none" fill-rule="evenodd">
        <path fill="#F9F9F9" d="M-1069-387H851v614h-1920z"/>
        <g>
            <path fill="#FFF" d="M0 0h285v54H0z"/>
            <rect width="257" height="36" x="14" y="9" fill="#8DC99E" rx="18"/>
            <path fill="#FFF" d="M37.688 29.39a5.252 5.252 0 0 1-.395 1.497c-.2.46-.478.86-.832 1.195a3.768 3.768 0 0 1-1.297.79c-.51.19-1.107.284-1.789.284a4.346 4.346 0 0 1-1.828-.375 3.968 3.968 0 0 1-1.402-1.066 4.914 4.914 0 0 1-.899-1.66c-.21-.646-.316-1.367-.316-2.164V26.75c0-.797.106-1.52.32-2.168a4.848 4.848 0 0 1 .914-1.664c.396-.461.876-.818 1.441-1.07.566-.253 1.2-.38 1.903-.38.64 0 1.208.094 1.703.282.495.188.915.45 1.262.785.346.336.62.737.824 1.203.203.466.333.98.39 1.543H36.18a5.107 5.107 0 0 0-.266-1.07 2.407 2.407 0 0 0-.496-.813 2.085 2.085 0 0 0-.785-.515c-.313-.12-.688-.18-1.125-.18-.505 0-.95.098-1.332.293a2.698 2.698 0 0 0-.961.82 3.725 3.725 0 0 0-.582 1.274 6.488 6.488 0 0 0-.195 1.644v1.157c0 .557.058 1.08.175 1.57.117.49.296.918.535 1.285.24.367.545.656.915.867.37.211.807.317 1.312.317.48 0 .883-.058 1.21-.172.33-.115.601-.28.817-.496a2.23 2.23 0 0 0 .504-.797c.12-.315.211-.673.274-1.074h1.508zm1.75 2.43c.171-.203.337-.411.496-.625.158-.213.303-.472.433-.777.13-.305.242-.673.336-1.105.094-.433.162-.964.203-1.594l.125-3.172h5.446v7.273h1.086v3.664h-1.446V33H40.22v2.484h-1.446l.008-3.664h.657zm2.914-4.101c-.026.495-.075.946-.145 1.355-.07.41-.159.781-.266 1.117a6.136 6.136 0 0 1-.363.907c-.135.268-.281.509-.437.722h3.89v-5.937H42.43l-.078 1.836zM54.382 33a1.566 1.566 0 0 1-.124-.395 6.827 6.827 0 0 1-.078-.496 3.85 3.85 0 0 1-.457.403 3.158 3.158 0 0 1-1.207.563 3.258 3.258 0 0 1-.743.081c-.432 0-.824-.065-1.175-.195a2.738 2.738 0 0 1-.899-.531 2.34 2.34 0 0 1-.574-.793 2.387 2.387 0 0 1-.203-.98c0-.454.088-.854.266-1.2.177-.346.43-.637.761-.871.33-.234.73-.412 1.2-.531.468-.12.992-.18 1.57-.18h1.437v-.664c0-.505-.15-.908-.453-1.207-.302-.3-.747-.45-1.336-.45-.27 0-.518.037-.742.11-.224.073-.415.17-.574.293a1.366 1.366 0 0 0-.371.426c-.089.161-.133.33-.133.508h-1.453c0-.302.08-.602.238-.899.159-.297.384-.564.676-.8.291-.238.644-.43 1.058-.579a4.087 4.087 0 0 1 1.387-.222c.458 0 .882.058 1.27.175.388.118.72.295.996.532.276.237.492.532.648.886.156.355.235.769.235 1.243v3.93c0 .286.024.586.074.902.05.315.123.587.222.816V33h-1.515zm-2.398-1.102c.26 0 .506-.036.735-.109.229-.073.437-.168.625-.285.187-.117.35-.251.488-.402a1.97 1.97 0 0 0 .324-.47v-1.734h-1.203c-.828 0-1.466.13-1.914.387-.448.258-.672.647-.672 1.168 0 .203.034.393.102.57.067.178.17.33.308.457.138.128.308.23.508.305.2.076.434.113.7.113zm11.352-7.351h1.445V33h-1.445v-6.164L59.438 33h-1.446v-8.453h1.446v6.172l3.898-6.172zm.39-3.078c0 .307-.053.588-.16.843a1.844 1.844 0 0 1-.464.66 2.18 2.18 0 0 1-.739.434c-.289.104-.613.157-.972.157-.36 0-.684-.053-.973-.157a2.18 2.18 0 0 1-.738-.433 1.887 1.887 0 0 1-.47-.66 2.12 2.12 0 0 1-.163-.844h1.18c0 .156.02.304.062.445a.944.944 0 0 0 .559.625 1.4 1.4 0 0 0 .543.094c.208 0 .386-.031.535-.094a.98.98 0 0 0 .363-.254.975.975 0 0 0 .203-.37c.042-.142.063-.29.063-.446h1.172zm9.657 4.25h-2.836V33h-1.445v-7.281H66.32v-1.172h7.063v1.172zm4.914 7.437a4.036 4.036 0 0 1-1.598-.304 3.566 3.566 0 0 1-1.222-.848 3.746 3.746 0 0 1-.782-1.293 4.756 4.756 0 0 1-.273-1.64v-.329c0-.687.103-1.302.308-1.844.206-.541.48-.997.825-1.367.343-.37.737-.652 1.18-.847a3.39 3.39 0 0 1 1.382-.293c.604 0 1.125.105 1.563.316.437.211.798.501 1.082.871.284.37.493.807.629 1.313.135.505.203 1.054.203 1.648v.648h-5.727c.01.391.074.756.192 1.094.117.339.283.633.5.883.216.25.476.448.78.594.306.146.65.219 1.036.219.51 0 .943-.105 1.297-.313.354-.208.664-.484.93-.828l.882.687c-.135.209-.3.41-.492.606-.193.195-.418.37-.676.523a3.556 3.556 0 0 1-.886.368 4.3 4.3 0 0 1-1.133.136zm-.18-7.578c-.291 0-.56.054-.805.16a2.003 2.003 0 0 0-.656.465 2.502 2.502 0 0 0-.48.758A3.841 3.841 0 0 0 75.914 28h4.234v-.11a4 4 0 0 0-.136-.835 2.27 2.27 0 0 0-.352-.742 1.812 1.812 0 0 0-.613-.532c-.25-.135-.56-.203-.93-.203zM94.133 33h-1.445v-3.61h-3.883V33h-1.453v-8.453h1.453v3.664h3.882v-3.664h1.446V33zm7.539 0a1.566 1.566 0 0 1-.125-.395 6.827 6.827 0 0 1-.078-.496 3.85 3.85 0 0 1-.457.403 3.158 3.158 0 0 1-1.207.563 3.258 3.258 0 0 1-.742.081c-.433 0-.825-.065-1.176-.195a2.738 2.738 0 0 1-.899-.531 2.34 2.34 0 0 1-.574-.793 2.387 2.387 0 0 1-.203-.98c0-.454.088-.854.266-1.2.177-.346.43-.637.761-.871.331-.234.73-.412 1.2-.531.468-.12.992-.18 1.57-.18h1.437v-.664c0-.505-.15-.908-.453-1.207-.302-.3-.747-.45-1.336-.45-.27 0-.518.037-.742.11-.224.073-.415.17-.574.293a1.366 1.366 0 0 0-.371.426c-.089.161-.133.33-.133.508h-1.453c0-.302.08-.602.238-.899.159-.297.384-.564.676-.8.292-.238.644-.43 1.058-.579a4.087 4.087 0 0 1 1.387-.222c.459 0 .882.058 1.27.175.388.118.72.295.996.532.276.237.492.532.648.886.157.355.235.769.235 1.243v3.93c0 .286.024.586.074.902.05.315.124.587.222.816V33h-1.515zm-2.399-1.102c.26 0 .506-.036.735-.109.229-.073.437-.168.625-.285.187-.117.35-.251.488-.402a1.97 1.97 0 0 0 .324-.47v-1.734h-1.203c-.828 0-1.466.13-1.914.387-.448.258-.672.647-.672 1.168 0 .203.034.393.102.57.068.178.17.33.308.457.138.128.308.23.508.305.2.076.434.113.7.113zm12.68-4.265l1.875-3.086h1.688l-2.766 4.18L115.602 33h-1.672l-1.953-3.164L110.023 33h-1.68l2.852-4.273-2.765-4.18h1.672l1.851 3.086zm12.234 1.234c0 .62-.072 1.192-.218 1.715a4.203 4.203 0 0 1-.637 1.36 2.965 2.965 0 0 1-1.027.894c-.407.213-.87.32-1.39.32-.532 0-.997-.083-1.395-.25a2.843 2.843 0 0 1-1.028-.726v4.07h-1.445V24.547h1.32l.07.937a2.866 2.866 0 0 1 1.04-.812c.406-.188.877-.281 1.414-.281.53 0 1 .104 1.41.312.409.208.754.501 1.035.879.281.378.493.83.637 1.36.143.528.215 1.115.215 1.761v.164zm-1.445-.164c0-.422-.044-.819-.133-1.191a3.003 3.003 0 0 0-.414-.98 2.1 2.1 0 0 0-.71-.669c-.287-.164-.628-.246-1.024-.246-.245 0-.468.029-.668.086a2.017 2.017 0 0 0-.973.613 2.771 2.771 0 0 0-.328.465v4.04c.094.166.203.32.328.464.125.143.269.266.43.367.161.102.344.181.547.239.203.057.43.086.68.086.39 0 .727-.084 1.011-.25.284-.167.52-.391.707-.672.188-.282.326-.611.414-.989a5.24 5.24 0 0 0 .133-1.199v-.164zm8.5 4.297a1.566 1.566 0 0 1-.125-.395 6.827 6.827 0 0 1-.078-.496 3.85 3.85 0 0 1-.457.403 3.158 3.158 0 0 1-1.207.563 3.258 3.258 0 0 1-.742.081c-.432 0-.824-.065-1.176-.195a2.738 2.738 0 0 1-.898-.531 2.34 2.34 0 0 1-.575-.793 2.387 2.387 0 0 1-.203-.98c0-.454.089-.854.266-1.2.177-.346.43-.637.762-.871.33-.234.73-.412 1.199-.531.469-.12.992-.18 1.57-.18h1.438v-.664c0-.505-.151-.908-.453-1.207-.303-.3-.748-.45-1.336-.45-.271 0-.519.037-.743.11-.224.073-.415.17-.574.293a1.366 1.366 0 0 0-.37.426c-.09.161-.134.33-.134.508h-1.453c0-.302.08-.602.238-.899.16-.297.385-.564.676-.8.292-.238.645-.43 1.059-.579a4.087 4.087 0 0 1 1.386-.222c.459 0 .882.058 1.27.175.388.118.72.295.996.532.276.237.492.532.649.886.156.355.234.769.234 1.243v3.93c0 .286.025.586.074.902.05.315.124.587.223.816V33h-1.516zm-2.398-1.102c.26 0 .505-.036.734-.109.23-.073.438-.168.625-.285.188-.117.35-.251.488-.402a1.97 1.97 0 0 0 .325-.47v-1.734h-1.203c-.829 0-1.467.13-1.915.387-.447.258-.671.647-.671 1.168 0 .203.033.393.101.57.068.178.17.33.309.457.138.128.307.23.508.305.2.076.433.113.699.113zM141.633 33h-1.446v-3.61h-3.882V33h-1.453v-8.453h1.453v3.664h3.882v-3.664h1.446V33zm5.828.156a4.036 4.036 0 0 1-1.598-.304 3.566 3.566 0 0 1-1.222-.848 3.746 3.746 0 0 1-.782-1.293 4.756 4.756 0 0 1-.273-1.64v-.329c0-.687.103-1.302.309-1.844.205-.541.48-.997.824-1.367s.737-.652 1.18-.847a3.39 3.39 0 0 1 1.382-.293c.604 0 1.125.105 1.563.316.437.211.798.501 1.082.871.284.37.493.807.629 1.313.135.505.203 1.054.203 1.648v.648h-5.727c.01.391.074.756.192 1.094.117.339.284.633.5.883.216.25.476.448.78.594.306.146.65.219 1.036.219.51 0 .943-.105 1.297-.313.354-.208.664-.484.93-.828l.882.687c-.135.209-.299.41-.492.606-.192.195-.418.37-.676.523a3.556 3.556 0 0 1-.886.368 4.3 4.3 0 0 1-1.133.136zm-.18-7.578c-.291 0-.56.054-.804.16a2.003 2.003 0 0 0-.657.465 2.502 2.502 0 0 0-.48.758 3.841 3.841 0 0 0-.262 1.039h4.234v-.11a4 4 0 0 0-.136-.835 2.27 2.27 0 0 0-.352-.742 1.812 1.812 0 0 0-.613-.532c-.25-.135-.56-.203-.93-.203zM159.336 33h-1.445v-3.61h-3.883V33h-1.453v-8.453h1.453v3.664h3.883v-3.664h1.445V33zm7.789-8.453h1.445V33h-1.445v-6.164L163.227 33h-1.446v-8.453h1.446v6.172l3.898-6.172zm7.273 8.61a4.036 4.036 0 0 1-1.597-.305 3.566 3.566 0 0 1-1.223-.848 3.746 3.746 0 0 1-.781-1.293 4.756 4.756 0 0 1-.274-1.64v-.329c0-.687.103-1.302.309-1.844.206-.541.48-.997.824-1.367s.737-.652 1.18-.847a3.39 3.39 0 0 1 1.383-.293c.604 0 1.125.105 1.562.316.438.211.798.501 1.082.871.284.37.494.807.63 1.313.135.505.202 1.054.202 1.648v.648h-5.726c.01.391.074.756.191 1.094.117.339.284.633.5.883.216.25.477.448.781.594.305.146.65.219 1.036.219.51 0 .942-.105 1.296-.313.355-.208.664-.484.93-.828l.883.687c-.135.209-.3.41-.492.606-.193.195-.418.37-.676.523a3.556 3.556 0 0 1-.887.368 4.3 4.3 0 0 1-1.133.136zm-.18-7.579c-.29 0-.56.054-.804.16a2.003 2.003 0 0 0-.656.465 2.502 2.502 0 0 0-.48.758 3.841 3.841 0 0 0-.262 1.039h4.234v-.11a4 4 0 0 0-.137-.835 2.27 2.27 0 0 0-.351-.742 1.812 1.812 0 0 0-.614-.532c-.25-.135-.56-.203-.93-.203zM183.462 33v-8.453h3.297c.536 0 1.02.047 1.453.14.432.094.8.236 1.101.426.303.19.534.431.696.723.161.292.242.635.242 1.031 0 .39-.117.744-.352 1.059-.234.315-.58.556-1.039.722.271.063.512.158.723.286.211.127.39.277.535.449.146.172.255.362.328.57.073.208.11.425.11.649 0 .4-.076.75-.227 1.05-.15.3-.367.549-.648.746a3.072 3.072 0 0 1-1.024.45 5.55 5.55 0 0 1-1.36.152h-3.835zm1.445-3.71v2.546h2.39c.605 0 1.057-.112 1.356-.336.3-.224.45-.54.45-.945 0-.401-.15-.713-.45-.934-.3-.221-.751-.332-1.355-.332h-2.39zm0-1.157h1.867c1.355 0 2.032-.396 2.032-1.188 0-.817-.683-1.226-2.047-1.226h-1.852v2.414zm24.133-.453c0 .854-.108 1.618-.324 2.293-.216.674-.522 1.248-.918 1.722a3.928 3.928 0 0 1-1.438 1.086c-.562.25-1.19.375-1.882.375-.651 0-1.25-.117-1.797-.351a4.073 4.073 0 0 1-1.422-1.012 4.911 4.911 0 0 1-.957-1.613c-.237-.636-.371-1.354-.403-2.157h-1.632V33h-1.5V21.625h1.5v5.219h1.625c.01-.834.129-1.582.355-2.246.227-.664.542-1.228.945-1.692a4.1 4.1 0 0 1 1.438-1.066 4.447 4.447 0 0 1 1.832-.371c.693 0 1.322.126 1.887.379a3.994 3.994 0 0 1 1.445 1.09c.398.473.706 1.05.922 1.73.216.68.324 1.444.324 2.293v.719zm-1.492-.735c0-.677-.07-1.276-.207-1.797-.138-.52-.34-.958-.606-1.312a2.603 2.603 0 0 0-.972-.805 2.99 2.99 0 0 0-1.301-.273 2.89 2.89 0 0 0-1.266.273c-.38.183-.704.45-.972.805-.269.354-.476.792-.621 1.312-.146.521-.22 1.12-.22 1.797v.735c0 .682.075 1.284.223 1.804.149.521.359.96.63 1.317.27.357.596.626.976.808.38.183.802.274 1.266.274.49 0 .924-.091 1.304-.274.38-.182.702-.451.965-.808.263-.357.462-.796.598-1.317.135-.52.203-1.122.203-1.804v-.735zm10.117-2.398V33h-1.453v-7.258h-2.867l-.102 2.422a17.735 17.735 0 0 1-.207 2.11c-.101.604-.259 1.108-.472 1.511a2.204 2.204 0 0 1-.852.91c-.354.203-.8.305-1.336.305h-.422l.031-1.29.313-.007c.281 0 .512-.066.691-.2.18-.132.324-.34.434-.624.11-.284.191-.65.246-1.098.055-.448.098-.987.129-1.617l.156-3.617h5.711zm7.188 6.539l2.875-6.54h1.804V33h-1.445v-6.148L225.352 33h-1l-2.79-6.281V33h-1.445v-8.453h1.875l2.86 6.539zM237.07 33a1.566 1.566 0 0 1-.125-.395 6.827 6.827 0 0 1-.078-.496 3.85 3.85 0 0 1-.457.403 3.158 3.158 0 0 1-1.207.563 3.258 3.258 0 0 1-.742.081c-.432 0-.824-.065-1.176-.195a2.738 2.738 0 0 1-.898-.531 2.34 2.34 0 0 1-.575-.793 2.387 2.387 0 0 1-.203-.98c0-.454.089-.854.266-1.2.177-.346.431-.637.762-.871.33-.234.73-.412 1.199-.531.469-.12.992-.18 1.57-.18h1.438v-.664c0-.505-.151-.908-.453-1.207-.302-.3-.748-.45-1.336-.45-.271 0-.519.037-.743.11-.223.073-.415.17-.574.293a1.366 1.366 0 0 0-.37.426c-.09.161-.134.33-.134.508h-1.453c0-.302.08-.602.239-.899.158-.297.384-.564.675-.8.292-.238.645-.43 1.059-.579a4.087 4.087 0 0 1 1.387-.222c.458 0 .881.058 1.27.175.387.118.72.295.995.532.276.237.492.532.649.886.156.355.234.769.234 1.243v3.93c0 .286.025.586.074.902.05.315.124.587.223.816V33h-1.516zm-2.398-1.102c.26 0 .505-.036.734-.109.23-.073.438-.168.625-.285.188-.117.35-.251.489-.402a1.97 1.97 0 0 0 .324-.47v-1.734h-1.203c-.829 0-1.467.13-1.914.387-.448.258-.672.647-.672 1.168 0 .203.034.393.101.57.068.178.17.33.309.457.138.128.307.23.508.305.2.076.433.113.699.113zm13.023-3.03c0 .619-.073 1.19-.218 1.714a4.203 4.203 0 0 1-.637 1.36 2.965 2.965 0 0 1-1.028.894c-.406.213-.87.32-1.39.32-.531 0-.996-.083-1.395-.25A2.843 2.843 0 0 1 242 32.18v4.07h-1.445V24.547h1.32l.07.937a2.866 2.866 0 0 1 1.04-.812c.406-.188.877-.281 1.413-.281.532 0 1.002.104 1.41.312.41.208.754.501 1.036.879.281.378.493.83.636 1.36.144.528.215 1.115.215 1.761v.164zm-1.445-.165c0-.422-.044-.819-.133-1.191a3.003 3.003 0 0 0-.414-.98 2.1 2.1 0 0 0-.71-.669c-.287-.164-.628-.246-1.024-.246-.245 0-.468.029-.668.086a2.017 2.017 0 0 0-.973.613 2.771 2.771 0 0 0-.328.465v4.04c.094.166.203.32.328.464.125.143.268.266.43.367.161.102.344.181.547.239.203.057.43.086.68.086.39 0 .727-.084 1.011-.25.284-.167.52-.391.707-.672.188-.282.326-.611.414-.989a5.24 5.24 0 0 0 .133-1.199v-.164zm9.563-2.984h-2.836V33h-1.446v-7.281h-2.781v-1.172h7.063v1.172z"/>
        </g>
    </g>
</svg>
