<svg xmlns="http://www.w3.org/2000/svg" width="189" height="36" viewBox="0 0 189 36">
    <defs>
        <linearGradient id="a" x1="99.627%" x2="50.405%" y1="50.039%" y2="50.039%">
            <stop offset="0%" stop-color="#E84E0F"/>
            <stop offset="59.08%" stop-color="#E52A22"/>
            <stop offset="100%" stop-color="#E40428"/>
        </linearGradient>
        <linearGradient id="b" x1="133.819%" x2="49.953%" y1="85.828%" y2="34.045%">
            <stop offset="11.79%" stop-color="#E30613"/>
            <stop offset="42.81%" stop-color="#E30613"/>
            <stop offset="49.97%" stop-color="#DF0A14"/>
            <stop offset="60.31%" stop-color="#D41317"/>
            <stop offset="72.56%" stop-color="#C11C1C"/>
            <stop offset="86.19%" stop-color="#A52422"/>
            <stop offset="93.66%" stop-color="#932826"/>
        </linearGradient>
        <linearGradient id="c" x1="-35.872%" x2="89.791%" y1="10.234%" y2="69.33%">
            <stop offset="0%" stop-color="#E94E24"/>
            <stop offset="19.03%" stop-color="#E73A26"/>
            <stop offset="43.92%" stop-color="#E40428"/>
            <stop offset="52.38%" stop-color="#DD0B27"/>
            <stop offset="67.57%" stop-color="#CB1826"/>
            <stop offset="87.58%" stop-color="#AB2325"/>
            <stop offset="100%" stop-color="#932826"/>
        </linearGradient>
        <linearGradient id="d" x1=".102%" x2="100.205%" y1="50.034%" y2="50.034%">
            <stop offset="0%" stop-color="#EA560D"/>
            <stop offset="62.4%" stop-color="#E40428"/>
            <stop offset="75.06%" stop-color="#E52424"/>
            <stop offset="98.66%" stop-color="#E84C11"/>
            <stop offset="100%" stop-color="#E84E0F"/>
        </linearGradient>
    </defs>
    <g fill="none" fill-rule="evenodd">
        <path d="M129.838 24.292h56.961v13.193h-56.961z"/>
        <path fill="#EA560D" d="M142.515 32.895c.04.445.151.786.334 1.023.336.43.92.645 1.75.645.494 0 .929-.107 1.304-.322.376-.215.564-.547.564-.997 0-.341-.15-.6-.452-.779-.193-.108-.574-.234-1.142-.378l-1.06-.267c-.677-.168-1.176-.355-1.498-.563-.573-.36-.86-.86-.86-1.498 0-.75.27-1.359.812-1.823.541-.465 1.269-.697 2.183-.697 1.196 0 2.059.35 2.588 1.053.33.444.491.924.481 1.438h-1.26a1.544 1.544 0 0 0-.319-.823c-.306-.351-.837-.526-1.593-.526-.505 0-.886.096-1.146.289a.906.906 0 0 0-.389.763c0 .346.17.623.512.83.197.124.489.233.874.327l.882.215c.96.232 1.602.457 1.928.674.519.341.778.878.778 1.61 0 .706-.268 1.316-.804 1.83s-1.353.771-2.45.771c-1.181 0-2.018-.268-2.51-.804-.491-.536-.754-1.2-.79-1.99h1.283zm11.743-5.23c.53.265.932.607 1.209 1.027.267.4.444.867.533 1.401.08.366.119.949.119 1.75h-5.82c.025.805.216 1.451.571 1.938.356.487.907.73 1.654.73.696 0 1.252-.23 1.668-.689.237-.267.405-.576.504-.927h1.312c-.035.292-.15.617-.345.975a3.467 3.467 0 0 1-.656.879 3.11 3.11 0 0 1-1.505.8c-.321.08-.684.119-1.09.119-.988 0-1.826-.36-2.513-1.079-.687-.719-1.03-1.726-1.03-3.02 0-1.276.346-2.311 1.038-3.107.692-.796 1.596-1.193 2.713-1.193.563 0 1.11.132 1.638.396zm.49 3.118c-.055-.579-.18-1.04-.379-1.387-.365-.642-.976-.964-1.83-.964a2.03 2.03 0 0 0-1.543.664c-.415.442-.635 1.004-.66 1.687h4.412zm8.254-2.914c.561.435.899 1.184 1.012 2.246h-1.297c-.08-.489-.26-.895-.541-1.22-.282-.323-.734-.485-1.357-.485-.85 0-1.458.415-1.824 1.246-.237.538-.355 1.203-.355 1.994 0 .796.168 1.465.504 2.009.336.544.865.815 1.586.815.554 0 .992-.169 1.316-.507.324-.339.547-.802.67-1.39h1.298c-.148 1.052-.519 1.822-1.112 2.309-.593.487-1.351.73-2.276.73-1.038 0-1.865-.38-2.483-1.138-.618-.759-.927-1.706-.927-2.843 0-1.394.339-2.478 1.016-3.254.677-.776 1.54-1.164 2.587-1.164.895 0 1.622.217 2.183.652zm7.317 5.653c.329-.67.493-1.415.493-2.235 0-.742-.118-1.345-.355-1.81-.376-.73-1.024-1.096-1.943-1.096-.815 0-1.408.31-1.779.934-.37.622-.556 1.374-.556 2.253 0 .845.185 1.55.556 2.113.37.564.959.845 1.764.845.885 0 1.492-.335 1.82-1.004zm.827-5.282c.707.682 1.06 1.685 1.06 3.01 0 1.28-.311 2.337-.934 3.172-.623.836-1.589 1.253-2.899 1.253-1.092 0-1.96-.37-2.602-1.108-.642-.739-.963-1.731-.963-2.976 0-1.335.338-2.397 1.015-3.188.677-.79 1.587-1.186 2.728-1.186 1.023 0 1.888.34 2.595 1.023zm2.647-.794h1.267v1.127c.376-.464.774-.798 1.194-1 .42-.203.887-.304 1.4-.304 1.128 0 1.889.392 2.284 1.178.218.43.326 1.046.326 1.846v5.093h-1.356v-5.004c0-.484-.072-.875-.215-1.171-.237-.494-.667-.741-1.29-.741-.316 0-.576.032-.779.096a2.005 2.005 0 0 0-.963.652 1.964 1.964 0 0 0-.434.812c-.067.28-.1.678-.1 1.197v4.16h-1.334v-7.94zm9.83 6.198c.36.573.939.86 1.734.86.618 0 1.126-.266 1.524-.797.398-.531.597-1.294.597-2.287 0-1.003-.205-1.746-.616-2.228-.41-.482-.916-.722-1.52-.722-.672 0-1.216.257-1.634.77-.418.515-.626 1.27-.626 2.269 0 .85.18 1.562.54 2.135zm2.995-5.953c.237.148.506.408.808.779v-4.011h1.282v10.927h-1.2v-1.104c-.312.489-.68.842-1.105 1.06-.425.217-.912.326-1.46.326-.885 0-1.651-.372-2.299-1.116-.647-.744-.971-1.733-.971-2.969 0-1.156.295-2.158.886-3.006.59-.848 1.434-1.271 2.532-1.271.607 0 1.116.128 1.527.385z"/>
        <g fill-rule="nonzero">
            <path fill="#E40428" d="M57.59 19.162c-.629-.315-1.153-.681-1.571-1.152a4.264 4.264 0 0 1-.786-1.623c-.157-.576-.21-1.204-.21-1.833V.942c0-.209.053-.366.158-.47.105-.106.262-.106.471-.106h2.932c.262 0 .471.053.524.105.104.053.104.21.104.471V14.24c0 .68.157 1.152.524 1.414.314.262.785.366 1.309.366h6.963c.21 0 .314.053.418.105.053.052.105.21.105.471v2.46c0 .367-.157.577-.523.577h-7.906c-1.047-.053-1.885-.21-2.513-.471zM86.96 8.534h-.157l-1.152 2.565-2.304 5.026c-.21.471-.418.785-.628.942-.21.157-.523.262-.942.262h-1.519c-.47 0-.785-.105-.942-.262-.157-.157-.366-.47-.576-.942l-1.78-3.56-1.728-3.717h-.157v10.156c0 .262-.052.42-.157.472a1.126 1.126 0 0 1-.523.104h-2.827c-.21 0-.367-.052-.471-.104-.105-.053-.158-.21-.158-.472V2.251c0-.68.158-1.204.42-1.466.261-.314.732-.419 1.36-.419h1.623c.524 0 .89.105 1.152.262.262.21.471.524.733.995l3.037 6.701 1.727 3.874h.105l1.885-4.293 2.827-6.23c.21-.47.471-.837.733-1.047.262-.21.68-.314 1.309-.314h1.361c.576 0 1.047.105 1.309.367.314.261.419.733.419 1.413v16.91c0 .262-.053.42-.157.472a1.126 1.126 0 0 1-.524.104h-2.775c-.21 0-.366-.052-.47-.104-.106-.053-.158-.21-.158-.472V8.534h.105zM104.917 15.601h-6.282l-1.047 3.508c-.053.157-.157.314-.21.419-.105.105-.262.105-.523.105H93.66c-.21 0-.314-.053-.366-.157a.447.447 0 0 1 0-.367l5.654-17.224c.104-.314.21-.576.314-.733.105-.21.262-.367.419-.471.157-.105.314-.21.523-.21.21-.052.471-.052.733-.052h1.623c.314 0 .576 0 .786.052.209.053.418.105.575.21.157.104.315.261.42.47.104.21.209.472.366.786l5.706 17.172c.053.105.053.21 0 .367-.052.104-.157.21-.366.21h-3.246c-.21 0-.367 0-.524-.053-.157-.053-.21-.157-.261-.367l-1.1-3.665zm-5.288-3.35h4.293l-1.047-3.508-.994-3.926h-.157l-1.048 3.926-1.047 3.508zM124.34 10.575c.629.262 1.047.681 1.31 1.152.261.524.47 1.1.628 1.728l1.413 5.497c.052.105.052.262 0 .419-.052.157-.157.21-.419.21h-2.88c-.209 0-.418 0-.627-.053-.21-.052-.367-.21-.472-.471l-1.204-4.87c-.262-.89-.576-1.517-1.047-1.884-.471-.366-1.1-.523-1.937-.523h-2.67v7.224c0 .262-.052.42-.105.472-.052.052-.261.104-.523.104h-2.932c-.21 0-.367-.052-.471-.104-.105-.105-.157-.21-.157-.472V2.042c0-.524.104-.943.314-1.257.21-.261.68-.419 1.309-.419h6.7c1.99 0 3.561.524 4.608 1.519 1.1.994 1.623 2.356 1.623 4.083 0 .943-.21 1.833-.68 2.618a4.11 4.11 0 0 1-1.885 1.885l.104.104zm-1.727-4.345c0-.262-.053-.471-.105-.733s-.21-.471-.366-.68c-.158-.21-.42-.367-.733-.524-.315-.157-.681-.21-1.205-.21h-3.717v4.398h3.665c.785 0 1.414-.21 1.832-.628.42-.471.629-.995.629-1.623zM142.56 3.927h-4.974v15.077c0 .262-.052.42-.105.472a1.126 1.126 0 0 1-.523.104h-2.932c-.21 0-.367-.052-.471-.104-.105-.105-.157-.21-.157-.472V3.927h-4.87c-.366 0-.523-.158-.523-.576V.89c0-.262.053-.419.105-.471.052-.053.21-.105.419-.105h14.03c.21 0 .367.052.42.105.052.052.104.21.104.471v2.46c.052.42-.157.577-.523.577z"/>
            <path fill="#E40521" d="M52.092 17.015c0 .628-.157 1.204-.419 1.675-.262.472-.837.786-1.57.995-.367.105-.786.157-1.204.21-.42.052-.89.104-1.31.104-.418 0-.837.053-1.256.053h-.942c-1.57 0-2.932-.158-4.084-.42-1.152-.261-2.042-.732-2.775-1.36-.733-.629-1.256-1.519-1.57-2.566-.314-1.047-.471-2.408-.471-4.031L36.438.942c0-.209.053-.366.157-.47.105-.106.262-.106.472-.106h2.931c.262 0 .472.053.524.105.105.053.105.21.105.471v10.995c0 .733.052 1.413.209 1.99.105.575.366 1.046.68 1.413.315.366.786.628 1.362.837a8.286 8.286 0 0 0 2.146.262h.524c.21 0 .471 0 .733-.052.262 0 .523-.053.837-.053.262-.052.524-.052.786-.104V1.047c0-.21.052-.366.157-.471.105-.105.262-.105.471-.105h2.932c.262 0 .471.053.523.105.053.052.105.21.105.471v15.968zM148.11 17.539c0 .68-.263 1.256-.734 1.78-.471.47-1.1.733-1.78.733-.366 0-.68-.053-.995-.21-.314-.105-.576-.314-.785-.523-.21-.21-.419-.472-.523-.786-.158-.314-.21-.628-.21-.994 0-.367.052-.681.21-.995.157-.314.314-.576.523-.785.21-.21.524-.367.785-.524.314-.105.629-.21.995-.21.733 0 1.309.262 1.78.734.471.47.733 1.099.733 1.78z"/>
            <g fill="#E40521">
                <path d="M164.496 10.68c.628.262 1.047.68 1.309 1.152.261.524.47 1.1.628 1.728l1.413 5.55c.053.104.053.26 0 .418-.052.157-.157.21-.418.21h-2.88c-.21 0-.419 0-.628-.053-.21-.052-.367-.21-.471-.471l-1.204-4.869c-.262-.89-.576-1.518-1.047-1.885-.472-.366-1.1-.523-1.938-.523h-2.722v7.277c0 .262-.052.419-.105.471-.052.052-.261.105-.523.105h-2.932c-.21 0-.367-.053-.471-.105-.105-.105-.157-.21-.157-.471V2.042c0-.576.104-.995.314-1.257.21-.261.68-.419 1.309-.419h6.753c1.99 0 3.56.524 4.66 1.519 1.1.994 1.623 2.356 1.623 4.083 0 .943-.21 1.833-.68 2.67-.42.838-1.1 1.466-1.886 1.885l.053.157zm-1.78-4.45c0-.262-.053-.471-.105-.733s-.21-.471-.366-.68c-.157-.21-.42-.367-.733-.524-.314-.157-.733-.21-1.204-.21h-3.77v4.398h3.665c.785 0 1.413-.21 1.832-.628.471-.419.68-.942.68-1.623zM186.432 17.067c0 .629-.157 1.204-.419 1.676-.262.47-.837.785-1.57.994-.367.105-.786.157-1.205.21-.418.052-.89.105-1.308.105-.42 0-.838.052-1.257.052h-.942c-1.57 0-2.932-.157-4.084-.419-1.152-.262-2.042-.733-2.775-1.361-.733-.628-1.256-1.518-1.57-2.565-.314-1.048-.471-2.409-.471-4.032L170.778.995c0-.21.053-.367.157-.471.105-.105.262-.105.472-.105h2.931c.262 0 .472.052.524.105.105.052.105.209.105.47V11.99c0 .733.052 1.414.209 1.99.105.575.366 1.047.68 1.413.315.367.786.628 1.362.838a8.286 8.286 0 0 0 2.146.261h.524c.21 0 .471 0 .733-.052.262 0 .523-.052.837-.052.262-.053.524-.053.786-.105V1.099c0-.209.052-.366.157-.47.105-.105.262-.105.471-.105h2.932c.262 0 .471.052.523.104.053.053.105.21.105.471v15.968z"/>
            </g>
            <g>
                <path fill="url(#a)" d="M16.963 0C11.36 0 6.806 4.555 6.806 10.209c0 5.602 4.555 10.157 10.157 10.157s10.156-4.555 10.156-10.157C27.12 4.555 22.565 0 16.963 0zm0 14.24a4.033 4.033 0 0 1-4.032-4.031 4.033 4.033 0 0 1 4.032-4.031 4.033 4.033 0 0 1 4.03 4.031 4.033 4.033 0 0 1-4.03 4.031z"/>
                <path fill="url(#b)" d="M16.963 14.24a4.033 4.033 0 0 1-4.032-4.031c0-1.885 1.31-3.508 3.09-3.927.313-.052.628-.104.942-.104V0c-.367 0-.681 0-1.047.052-5.131.524-9.11 4.87-9.11 10.105 0 5.602 4.555 10.156 10.157 10.156V14.24z"/>
                <path fill="url(#c)" d="M6.544.785c0-.21-.157-.314-.314-.314H.68C.472.471.367.628.367.785v19.162H6.23c.21 0 .314-.157.314-.314V.785z"/>
                <path fill="url(#d)" d="M17.12 0h-.157-.053c-1.309 0-2.617.262-3.874.733-1.152.419-2.251 1.047-3.298 1.832-1.78 1.31-3.403 3.194-4.87 5.497C2.305 12.094.943 16.806.315 19.947h5.864c.157 0 .262-.053.314-.262.628-2.408 1.78-5.602 3.508-8.377 1.047-1.675 2.198-2.984 3.35-3.874 1.152-.89 2.304-1.309 3.508-1.309h.21c2.146.105 3.874 1.885 3.874 4.032h6.125C27.119 4.659 22.669.105 17.12 0z"/>
            </g>
        </g>
    </g>
</svg>
