<svg xmlns="http://www.w3.org/2000/svg" xmlns:xlink="http://www.w3.org/1999/xlink" width="311" height="301" viewBox="0 0 311 301">
    <defs>
        <path id="a" d="M0 0h311v300.863H0z"/>
    </defs>
    <g fill="none" fill-rule="evenodd">
        <mask id="b" fill="#fff">
            <use xlink:href="#a"/>
        </mask>
        <use fill="#F9F9F9" xlink:href="#a"/>
        <path fill="#E9E9E9" fill-opacity=".5" d="M114.763 15c13.643 0 26.149 1.563 37.518 4.69 11.369 3.126 21.245 7.887 29.63 14.282 8.385 6.395 14.85 14.282 19.398 23.662 4.548 9.379 6.821 20.18 6.821 32.401 0 8.243-1.278 15.774-3.837 22.596-2.558 6.821-5.968 13.287-10.232 19.398a117.981 117.981 0 0 1-14.495 17.053 332.716 332.716 0 0 1-16.627 15.135 4736.38 4736.38 0 0 1-16.627 14.07c-5.4 4.547-10.232 9.237-14.496 14.069-4.263 4.831-7.745 9.876-10.445 15.134-2.7 5.259-4.05 10.872-4.05 16.84v11.512c0 3.979-1.99 5.968-5.969 5.968H85.346c-3.695 0-5.542-1.847-5.542-5.542v-13.216c0-9.664 1.705-18.19 5.116-25.58a86.392 86.392 0 0 1 13.003-20.251c5.258-6.111 11.084-11.796 17.48-17.054 6.395-5.258 12.719-10.445 18.971-15.561 9.096-7.674 17.196-15.774 24.302-24.301 7.105-8.527 10.658-18.617 10.658-30.27 0-4.548-.853-9.308-2.558-14.282-1.705-4.974-4.69-9.38-8.953-13.217-4.263-3.837-9.877-7.034-16.84-9.592-6.964-2.558-15.704-3.837-26.22-3.837-10.8 0-22.027 1.918-33.68 5.755-11.654 3.837-22.454 9.45-32.402 16.84-3.98 2.559-7.248 2.417-9.806-.426L27.365 53.37c-2.275-3.41-1.706-6.395 1.705-8.953 6.253-5.116 13.145-9.521 20.677-13.216 7.532-3.695 15.135-6.75 22.809-9.166 7.674-2.416 15.135-4.193 22.382-5.33C102.186 15.568 108.794 15 114.763 15zm12.364 277.118c0 8.243-2.771 15.206-8.314 20.89-5.542 5.685-12.435 8.527-20.677 8.527-8.243 0-15.206-2.771-20.89-8.313-5.685-5.543-8.527-12.577-8.527-21.104 0-8.243 2.984-15.135 8.953-20.677 5.969-5.543 13.074-8.314 21.317-8.314 2.273 0 5.045.427 8.313 1.28 3.269.852 6.395 2.344 9.38 4.476 2.984 2.131 5.47 5.116 7.46 8.953 1.99 3.837 2.985 8.598 2.985 14.282z" mask="url(#b)"/>
    </g>
</svg>
