<svg xmlns="http://www.w3.org/2000/svg" width="80" height="70" viewBox="0 0 80 70">
    <g fill="#00B5DB" fill-rule="nonzero">
        <path d="M32.565 31.566h28.12a11.007 11.007 0 1 0 0-22.008h-28.12a11.007 11.007 0 1 0 0 22.008zm28.12-20.333a9.332 9.332 0 1 1 0 18.659H38.358a10.973 10.973 0 0 0 .012-18.66h22.315zm-28.12 0a9.332 9.332 0 1 1 0 18.664 9.332 9.332 0 0 1 0-18.664zM60.685 40.396h-28.12a11.004 11.004 0 1 0 0 22.008h28.12a11.007 11.007 0 1 0 0-22.008zm-28.12 20.333a9.33 9.33 0 1 1 0-18.659H54.89a10.973 10.973 0 0 0 0 18.66H32.565zm37.396-8.372a9.343 9.343 0 0 1-9.282 8.372 9.327 9.327 0 1 1 9.293-8.372h-.011z"/>
        <g>
            <path d="M60.666 41c-5.742 0-10.398 4.656-10.398 10.398 0 5.743 4.656 10.399 10.398 10.399 5.743 0 10.399-4.656 10.399-10.399C71.065 45.656 66.409 41 60.666 41zm4.817 7.522l-4.98 7.613-.004.002-.073.121-.156.113-.04.028-.255.106-.089.021-.218.005-.152-.026-.15-.058-.124-.05-.07-.069-.033-.02-2.9-2.682a.91.91 0 0 1 1.235-1.336l2.1 1.942 4.386-6.706a.91.91 0 1 1 1.523.996z"/>
        </g>
    </g>
</svg>
