<svg xmlns="http://www.w3.org/2000/svg" width="80" height="70" viewBox="0 0 80 70">
    <g fill="#00B5DB" fill-rule="nonzero">
        <path d="M77.781 52.947v-42.86H19v42.86h18.37v6.123h-4.9V61h31.84v-1.93h-4.898v-6.123h18.37zM21.016 11.95h54.98v31.732h-54.98V11.949zM57.572 59.07H39.319v-6.123h18.253v6.123zm-36.556-8.038V45.6h54.98v5.432h-54.98z"/>
        <path d="M23.898 17.434v19.593h48.985V17.434H23.898zm47.117 17.559H25.863V19.348h45.152v15.645z"/>
        <path d="M34.993 26.793l-.65-1.126-1.276.737V24.93h-1.3v1.474l-1.276-.737-.65 1.126 1.276.737-1.276.736.65 1.126 1.276-.737v1.474h1.3v-1.474l1.276.737.65-1.126-1.276-.736zM42.792 26.793l-.65-1.126-1.277.737V24.93h-1.3v1.474l-1.276-.737-.65 1.126 1.277.737-1.277.736.65 1.126 1.277-.737v1.474h1.3v-1.474l1.276.737.65-1.126-1.277-.736z"/>
        <path d="M50.59 26.793l-.65-1.126-1.276.737V24.93h-1.3v1.474l-1.276-.737-.65 1.126 1.276.737-1.276.736.65 1.126 1.276-.737v1.474h1.3v-1.474l1.276.737.65-1.126-1.276-.736 1.276-.737zm-15.597 0l-.65-1.126-1.276.737V24.93h-1.3v1.474l-1.276-.737-.65 1.126 1.276.737-1.276.736.65 1.126 1.276-.737v1.474h1.3v-1.474l1.276.737.65-1.126-1.276-.736 1.276-.737zm24 0l-.65-1.126-1.276.737V24.93h-1.3v1.474l-1.276-.737-.65 1.126 1.276.737-1.276.736.65 1.126 1.276-.737v1.474h1.3v-1.474l1.276.737.65-1.126-1.276-.736 1.276-.737zm8 0l-.65-1.126-1.276.737V24.93h-1.3v1.474l-1.276-.737-.65 1.126 1.276.737-1.276.736.65 1.126 1.276-.737v1.474h1.3v-1.474l1.276.737.65-1.126-1.276-.736 1.276-.737z"/>
    </g>
</svg>
