<svg xmlns="http://www.w3.org/2000/svg" width="80" height="70" viewBox="0 0 80 70">
    <g fill="none" fill-rule="evenodd">
        <path fill="#00B5DB" fill-rule="nonzero" d="M72.038 10.109h-42.26c-.978 0-1.847.76-1.847 1.847V29.88h-6.084c-.978 0-1.847.76-1.847 1.847V60.3c0 .978.76 1.847 1.847 1.847h42.26c.978 0 1.847-.76 1.847-1.847V42.483h6.084c.978 0 1.847-.76 1.847-1.847v-28.68c0-.978-.76-1.847-1.847-1.847zm-7.713 50.19a.234.234 0 0 1-.218.218h-42.26c-.109 0-.217 0-.217-.109v-28.68c0-.109.108-.217.217-.217h42.26c.109 0 .218.108.218.217V60.3zm7.822-19.663a.234.234 0 0 1-.218.217h-6.083v-3.476h2.172c.435 0 .87-.326.87-.87 0-.542-.326-.868-.87-.868h-2.172v-1.63h2.172c.435 0 .87-.326.87-.869 0-.543-.326-.869-.87-.869h-2.172v-.652c0-.978-.76-1.847-1.847-1.847H29.56v-6.518h42.587v17.382zm0-19.012H29.56v-3.802h42.587v3.802zm.108-5.323H29.56v-4.345c0-.11.109-.11.218-.11h42.26c.109 0 .217.11.217.218v4.237z"/>
        <path fill="#00B5DB" fill-rule="nonzero" d="M40.859 37.16h-12.82c-1.086 0-1.955.869-1.955 1.955v6.627c0 1.087.869 1.956 1.955 1.956h12.82c1.086 0 1.955-.87 1.955-1.956v-6.627c0-1.086-.869-1.955-1.955-1.955zm.326 8.69c0 .11-.109.327-.326.327h-12.82c-.108 0-.326-.109-.326-.326v-6.627c0-.109.109-.326.326-.326h12.82c.108 0 .326.109.326.326v6.627zM33.145 54.65h-6.192c-.435 0-.87.327-.87.87 0 .543.435.869.87.869h6.192c.435 0 .87-.326.87-.87 0-.542-.326-.868-.87-.868zM45.53 54.76h-6.192c-.543 0-.87.434-.87.868 0 .435.327.87.87.87h6.192c.435 0 .87-.326.87-.87 0-.543-.327-.869-.87-.869zM57.806 54.65h-6.192c-.435 0-.87.327-.87.87 0 .543.435.869.87.869h6.192c.435 0 .87-.326.87-.87 0-.542-.326-.868-.87-.868z"/>
        <path fill="#E9E9E9" d="M29.629 29.889h34.7l1.544 2.072v8.945h3.95V28.692c-.151-1.988-.848-2.994-2.089-3.018-1.24-.024-13.942-.012-38.105.035v4.18z" style="mix-blend-mode:multiply"/>
    </g>
</svg>
