<svg xmlns="http://www.w3.org/2000/svg" width="80" height="70" viewBox="0 0 80 70">
    <g fill="#00B5DB" fill-rule="nonzero">
        <path d="M76.542 6.03H24.064a1.01 1.01 0 0 0-1.009 1.008V41.351c0 .557.452 1.009 1.01 1.009h52.477a1.01 1.01 0 0 0 1.01-1.01V7.039a1.01 1.01 0 0 0-1.01-1.009zm-1.01 34.312H25.074v-2.019h50.46v2.019zm0-4.037H25.074v-2.019h50.46v2.019zm0-4.037H25.074V8.048h50.46v24.22z"/>
        <path d="M72.505 14.103c-1.704 0-3.027-1.628-3.027-3.028a1.01 1.01 0 0 0-1.01-1.009h-36.33a1.01 1.01 0 0 0-1.01 1.01c0 1.399-1.322 3.027-3.027 3.027a1.01 1.01 0 0 0-1.01 1.009v10.092c0 .557.453 1.009 1.01 1.009a3.031 3.031 0 0 1 3.028 3.028c0 .557.452 1.009 1.009 1.009h36.33a1.01 1.01 0 0 0 1.01-1.01 3.031 3.031 0 0 1 3.027-3.027 1.01 1.01 0 0 0 1.01-1.01V15.113a1.01 1.01 0 0 0-1.01-1.01zm-1.009 10.194a5.059 5.059 0 0 0-3.935 3.934H33.045a5.059 5.059 0 0 0-3.935-3.934V16.01c1.915-.424 3.502-2.011 3.926-3.926H67.57c.424 1.915 2.012 3.502 3.926 3.926v8.286z"/>
        <path d="M50.303 14.103a6.061 6.061 0 0 0-6.055 6.055 6.061 6.061 0 0 0 6.055 6.055 6.061 6.061 0 0 0 6.055-6.055 6.061 6.061 0 0 0-6.055-6.055zm0 10.092a4.04 4.04 0 0 1-4.037-4.037 4.04 4.04 0 0 1 4.037-4.037 4.04 4.04 0 0 1 4.037 4.037 4.04 4.04 0 0 1-4.037 4.037zM72.338 47.605a3.296 3.296 0 0 0-2.689-.726l-20.012 3.48-5.685-5.685a1.007 1.007 0 0 0-.713-.296H17v2.019h11.101v12.11H17v2.018H35.937l10.789 5.395a3.293 3.293 0 0 0 3.137-.1l22.013-12.842a3.312 3.312 0 0 0 1.637-2.85c0-.975-.428-1.896-1.175-2.523zm-40.2 10.902h-2.019v-12.11h2.019v12.11zm38.723-7.273L48.846 64.076c-.375.218-.83.23-1.218.039l-11.002-5.501a1 1 0 0 0-.451-.107h-2.019v-12.11h8.665l7.95 7.95a1.847 1.847 0 0 1-2.61 2.61l-5.218-5.219-1.427 1.427 5.219 5.219c.73.73 1.7 1.132 2.731 1.132a3.868 3.868 0 0 0 3.865-3.864 3.836 3.836 0 0 0-1.133-2.732l-.816-.816 18.614-3.238a1.277 1.277 0 0 1 1.5 1.262c0 .453-.243.877-.635 1.106z"/>
    </g>
</svg>
