<svg xmlns="http://www.w3.org/2000/svg" width="80" height="70" viewBox="0 0 80 70">
    <g fill="none" fill-rule="nonzero">
        <g fill="#00B5DB">
            <path d="M66.657 10H16.859c-.516 0-.859.343-.859.859v49.798c0 .515.343.859.859.859h49.798c.515 0 .859-.344.859-.859V10.859c0-.516-.344-.859-.859-.859zm-.859 49.798h-48.08v-48.08h48.08v48.08z"/>
            <path d="M21.152 26.313h41.212c.515 0 .859-.343.859-.858V15.152c0-.516-.344-.859-.859-.859H21.152c-.516 0-.859.343-.859.859v10.303c0 .515.343.858.859.858zm.858-10.303h39.495v8.586H22.01V16.01zM62.364 28.89H52.061c-.515 0-.859.343-.859.858v9.444c0 .515.344.859.859.859h10.303c.515 0 .859-.344.859-.859v-9.444c0-.515-.344-.859-.859-.859zm-.859 8.413l-7.298-6.697h7.298v6.697zm-8.585-5.58l7.212 6.61H52.92v-6.61zM62.364 42.627H52.061c-.515 0-.859.343-.859.858v12.88c0 .514.344.858.859.858h10.303c.515 0 .859-.344.859-.859V43.485c0-.515-.344-.858-.859-.858zm-1.803 1.717L52.92 53.96v-9.616h7.641zm-6.697 11.161l7.641-9.53v9.53h-7.641zM21.152 44.344h14.596c.515 0 .858-.344.858-.859V29.748c0-.515-.343-.859-.858-.859H21.152c-.516 0-.859.344-.859.859v13.737c0 .515.343.859.859.859zm2.232-1.717l11.505-10.819v10.819H23.384zM33.6 30.607L22.011 41.51V30.606H33.6zM39.182 28.889h8.586v1.717h-8.586zM39.182 33.182h8.586v1.717h-8.586zM39.182 37.475h8.586v1.717h-8.586zM39.182 41.768h8.586v1.717h-8.586zM21.152 46.92h26.616v1.717H21.152zM21.152 51.212h26.616v1.717H21.152zM21.152 55.505h26.616v1.717H21.152z"/>
            <path d="M41.758 21.162h2.576v1.717h-2.576zM46.051 21.162h2.576v1.717h-2.576zM37.465 21.162h2.576v1.717h-2.576z"/>
        </g>
        <path fill="#E9E9E9" d="M74.476 52.68L57.957 36.16a.551.551 0 0 0-.94.39v24.228a.551.551 0 0 0 .977.349l4.398-5.375 2.935 6.358a.55.55 0 0 0 .717.274l3.854-1.652a.549.549 0 0 0 .283-.736l-2.944-6.376h6.849a.55.55 0 0 0 .39-.94z" style="mix-blend-mode:multiply"/>
        <path fill="#00B5DB" d="M76.476 51.68L59.957 35.16a.551.551 0 0 0-.94.39v24.228a.551.551 0 0 0 .977.349l4.398-5.375 2.935 6.358a.55.55 0 0 0 .717.274l3.854-1.652a.549.549 0 0 0 .283-.736l-2.944-6.376h6.849a.55.55 0 0 0 .39-.94z"/>
    </g>
</svg>
