<?xml version="1.0" encoding="UTF-8"?>
<svg width="80px" height="70px" viewBox="0 0 80 70" version="1.1" xmlns="http://www.w3.org/2000/svg" xmlns:xlink="http://www.w3.org/1999/xlink">
    <!-- Generator: Sketch 45.2 (43514) - http://www.bohemiancoding.com/sketch -->
    <title>icons/handshake copy 2</title>
    <desc>Created with Sketch.</desc>
    <defs></defs>
    <g id="001_Index" stroke="none" stroke-width="1" fill="none" fill-rule="evenodd">
        <g id="001_Index_Open:-1920-" transform="translate(-403.000000, -2296.000000)">
            <g id="Сделка" transform="translate(0.000000, 1067.000000)">
                <g id="Как-продавать/open" transform="translate(0.000000, 772.000000)">
                    <g id="number5" transform="translate(403.000000, 457.000000)">
                        <g id="icons/handshake">
                            <g id="icon/handshake">
                                <g>
                                    <path d="M78.6288113,28.8857995 L60.346651,10.7738968 L52.8421059,18.1046303 C51.3101188,19.4317736 49.9247357,19.576039 48.1711149,19.7584491 C47.236897,19.8558648 46.2713838,19.956117 45.2142555,20.2517876 C44.4298007,20.4708753 43.7450563,20.6962227 43.1331697,20.9318398 L32.9099843,10.7743859 L14.6288113,28.8862886 L24.0915317,38.2921934 C23.9382145,38.4037912 23.7846012,38.5152912 23.6459937,38.6526123 L22.6182849,39.6707833 C21.9039236,40.3785148 21.5110051,41.3222547 21.5110051,42.3280042 C21.5110051,43.3337537 21.9043185,44.2774936 22.6172977,44.983269 L22.8722998,45.2363936 C23.5861675,45.9441251 24.5387479,46.3338861 25.5539189,46.3338861 C25.6205571,46.3338861 25.6839374,46.3183348 25.7498845,46.3150093 C25.6962778,47.3413961 26.0504968,48.3848991 26.8399864,49.1677465 L27.0935077,49.4180346 C27.8329447,50.1506092 28.8037889,50.5173855 29.7756204,50.5173855 C29.8415675,50.5173855 29.9066262,50.5021276 29.9724745,50.4988021 C29.969118,50.5639416 29.9535197,50.6265381 29.9535197,50.6922644 C29.9535197,51.6980139 30.346833,52.6417538 31.0598122,53.3475292 L31.3148143,53.6006537 C32.028682,54.3083853 32.9812625,54.6981462 33.9964334,54.6981462 C34.0629729,54.6981462 34.1263532,54.6825949 34.1923003,54.6792695 C34.1385949,55.7053629 34.492419,56.748279 35.2810201,57.5301483 L35.5360222,57.7832729 C36.2754592,58.5158474 37.2463035,58.8816456 38.2176414,58.8816456 C39.1889792,58.8816456 40.1603171,58.5148693 40.9002477,57.7832729 L41.7771074,56.9140619 L41.7766138,56.9140619 C41.9667548,56.7256856 42.1302404,56.5185304 42.2734879,56.2999317 L46.6245168,60.6229039 C47.3987044,61.3899065 48.4158498,61.7738968 49.4338838,61.7738968 C50.4510292,61.7738968 51.468076,61.3908846 52.2422635,60.623882 C53.0877293,59.7857737 53.4546835,58.6619711 53.3767909,57.5635983 C53.4700844,57.5699558 53.5603174,57.5902996 53.6546968,57.5902996 C54.7180447,57.5902996 55.7149519,57.1824444 56.4630766,56.4412628 C57.2112012,55.7000813 57.6228771,54.7124261 57.6228771,53.6589467 C57.6229758,53.5643673 57.6022439,53.4741893 57.5957282,53.3807836 C57.689614,53.3872388 57.7803406,53.4076805 57.8754111,53.4076805 C58.9397463,53.4076805 59.9366534,52.9998253 60.6847781,52.2586437 C61.4329027,51.5174622 61.8445786,50.5298069 61.8445786,49.4763276 C61.8445786,49.3829219 61.8240442,49.2937219 61.8176272,49.2014899 C61.9111181,49.208043 62.003523,49.2279956 62.0971126,49.2279956 C63.1142581,49.2279956 64.1313048,48.8440053 64.9054924,48.0770027 C65.653617,47.3367992 66.0662801,46.3481659 66.0662801,45.2946866 C66.0662801,44.2412072 65.6546043,43.2525739 64.9064796,42.5113924 L64.8785409,42.4836152 L78.6288113,28.8857995 Z M60.346651,13.539977 L75.8367209,28.8857995 L71.2408583,33.4380314 L55.7517757,18.0926978 L60.346651,13.539977 Z M32.9099843,13.540466 L37.5053532,18.0931869 L22.0156783,33.4385204 L17.420803,28.8862886 L32.9099843,13.540466 Z M24.2693322,43.8543805 L24.0143301,43.6012559 C23.6730439,43.2631371 23.4855685,42.8113665 23.4855685,42.3280042 C23.4855685,41.844642 23.6735375,41.3919911 24.0143301,41.0538723 L25.0420389,40.0357013 C25.3963566,39.6851609 25.8615405,39.5094017 26.3267244,39.5094017 C26.7928954,39.5094017 27.2589678,39.6851609 27.6137791,40.0375596 L27.8673004,40.2878477 C28.208093,40.6259666 28.396062,41.0787152 28.396062,41.5619797 C28.396062,42.0452442 28.2085866,42.4971126 27.8673004,42.8352314 L26.8395915,43.8534024 C26.1570191,44.5297379 24.9499302,44.5287598 24.2693322,43.8543805 Z M28.489158,48.0341632 L28.2356367,47.783875 C27.5270014,47.0818163 27.5270014,45.9385501 28.2356367,45.2364914 L29.2633456,44.2183204 L31.2108588,42.2888814 C31.5651764,41.937363 32.0308539,41.7625819 32.4964327,41.7625819 C32.9616165,41.7625819 33.427294,41.937363 33.7811181,42.2879034 L34.0361202,42.5410279 C34.3774064,42.8791468 34.5648818,43.3309173 34.5648818,43.8142796 C34.5648818,44.2976419 34.3774064,44.7502927 34.0361202,45.0884116 L33.0594513,46.0560164 L31.0608982,48.0360215 C30.3512756,48.7371022 29.1977934,48.7390583 28.489158,48.0341632 Z M32.7118468,52.2186406 L32.4568447,51.9655161 C32.1155584,51.6273973 31.928083,51.1756267 31.928083,50.6922644 C31.928083,50.2089021 32.1155584,49.7571315 32.4568447,49.4190127 L34.4553977,47.4390075 C34.796684,47.1008887 35.2531802,46.9146641 35.7409717,46.9146641 C36.2287631,46.9146641 36.6852594,47.1008887 37.0270392,47.4399856 L37.2805604,47.6902737 C37.621353,48.0283926 37.8093221,48.4811412 37.8093221,48.9644057 C37.8093221,49.4476702 37.6218467,49.8995386 37.2805604,50.2376574 L35.2820074,52.2176626 C34.5995337,52.8939003 33.3925434,52.89302 32.7118468,52.2186406 Z M40.3807661,55.5310708 L39.5039063,56.4002817 C38.7942837,57.1013624 37.6408015,57.1023404 36.9331534,56.4012598 L36.6781513,56.1481352 C35.9695159,55.4460765 35.9695159,54.3028103 36.6781513,53.6007516 L37.5555046,52.7315406 C37.9103159,52.3800222 38.3759934,52.204263 38.8415722,52.204263 C39.3071509,52.204263 39.7724335,52.3800222 40.1262576,52.7305626 L40.3812597,52.9836871 C40.7220523,53.321806 40.9100213,53.7735765 40.9100213,54.2569388 C40.9100213,54.7403011 40.7220523,55.1929519 40.3807661,55.5310708 Z M63.5098421,46.6941093 C62.7318043,47.4649264 61.4649878,47.4667847 60.6850743,46.6941093 L56.8267729,42.8716156 C56.44116,42.4895814 55.8164394,42.4895814 55.4307277,42.8716156 C55.0450161,43.2536498 55.0451148,43.8725726 55.4307277,44.2547046 L59.289029,48.0771983 C60.0680541,48.8489934 60.0680541,50.104053 59.289029,50.8757504 C58.510004,51.6465674 57.242299,51.6484258 56.463274,50.8757504 L52.6059599,47.0542347 C52.220347,46.6722005 51.5956264,46.6722005 51.2099147,47.0542347 C50.8242031,47.4362689 50.8243018,48.0551917 51.2099147,48.4373237 L55.0672288,52.2588393 C55.4422784,52.6304082 55.6486099,53.1270722 55.6486099,53.6581643 C55.6486099,54.1892564 55.4422784,54.6868984 55.0672288,55.0583695 C54.2882038,55.8301646 53.0213873,55.8301646 52.242461,55.0583695 L48.3841597,51.2358758 C47.9985467,50.8538416 47.3738261,50.8538416 46.9881145,51.2358758 C46.6024028,51.61791 46.6025015,52.2368328 46.9881145,52.6189648 L50.8464158,56.4414584 C51.6254408,57.2132536 51.6244536,58.4691934 50.8464158,59.2409886 C50.0673908,60.0127837 48.8005743,60.0108276 48.021648,59.2409886 L42.9476688,54.1997217 C42.9259497,54.1780085 42.8972212,54.1702818 42.87412,54.1511116 C42.8469711,53.1858542 42.4656033,52.2824108 41.7782921,51.6017718 L41.52329,51.3486473 C40.972908,50.8035688 40.2623969,50.4731767 39.5157531,50.3476903 C39.6886175,49.9131337 39.7840829,49.4469855 39.7840829,48.9646013 C39.7840829,47.9588518 39.3912631,47.0151119 38.6763095,46.3064023 L38.4227882,46.0561142 C37.8490088,45.4872686 37.099502,45.158148 36.3171204,45.0465502 C36.4540496,44.654344 36.5394451,44.2425765 36.5394451,43.8143774 C36.5394451,42.8086279 36.1461318,41.864888 35.4331526,41.1591126 L35.1781505,40.9059881 C33.8253461,39.5666188 31.7072392,39.4663666 30.2230341,40.575596 C30.0525391,39.950707 29.7361311,39.3731566 29.2629507,38.9039763 L29.0094294,38.6536882 C28.2219142,37.8736772 27.1721901,37.5216698 26.1385579,37.572236 L26.1450736,37.5657808 L23.4047142,34.8287493 L38.898338,19.4793078 L41.2406454,21.8189494 C39.7059928,22.6920726 38.6697938,23.7327392 37.3150149,25.1001791 C37.0175618,25.4005444 34.0757082,28.320475 34.0757082,28.320475 C32.527333,29.8544802 32.527333,32.3511998 34.0757082,33.8855963 C34.8498958,34.6530879 35.8670412,35.0365892 36.8845816,35.0365892 C37.901727,35.0365892 38.9187737,34.6530879 39.6929613,33.8855963 L43.5942072,30.0205565 C44.5158873,29.1074302 46.7983684,30.1318609 49.4428676,31.3176731 C50.2686874,31.6881661 51.1433753,32.0790029 52.054492,32.4486156 C52.0925991,32.5083757 52.1198467,32.5731239 52.1722688,32.6252551 L63.5110267,43.8945792 C63.8860763,44.266148 64.0924078,44.762812 64.0924078,45.2939041 C64.0924078,45.8249962 63.8848916,46.3225405 63.5098421,46.6941093 Z M63.4850625,41.0983745 L56.0996763,33.7575669 C57.9915096,34.1774524 59.9743657,34.3019607 61.9885171,33.8383555 C62.5197468,33.7165857 62.8503709,33.1912643 62.7279541,32.6649647 C62.60455,32.1381762 62.0733203,31.8134569 61.5430779,31.9328792 C57.6163613,32.8321169 53.7049469,31.0823495 50.2564458,29.5359228 C46.9457622,28.0511145 44.0852566,26.7678865 42.1980633,28.6375653 L38.2968174,32.5026051 C37.518286,33.2739112 36.2509759,33.2748893 35.471556,32.5026051 C34.6930246,31.7308099 34.6930246,30.4752613 35.471556,29.703564 C35.471556,29.703564 38.4221959,26.7751242 38.7243877,26.4703575 C40.8887958,24.2854467 41.9753437,23.1889322 45.7502239,22.1344748 C46.6448538,21.8841867 47.5260574,21.7925415 48.378335,21.7042218 C50.2265326,21.5112485 52.138308,21.3126025 54.1416985,19.5776039 L54.3107127,19.4312846 L69.844122,34.8205335 L63.4850625,41.0983745 Z" id="Shape" fill="#00B5DB" fill-rule="nonzero"></path>
                                    <path d="M34.2011719,34.0007935 C34.8054606,36.1368612 35.7544963,37.4067586 37.0482788,37.8104858 C38.9889526,38.4160767 40.9116821,37.6071167 41.4644165,37.1153564 C41.8329061,36.7875163 42.9412435,35.6908366 44.7894287,33.8253174 C45.6748454,32.9492594 46.3943685,32.5550741 46.947998,32.6427612 C47.5016276,32.7304484 49.2116089,33.0786947 52.0779419,33.6875 L54.1529541,34.5847168 L52.0779419,32.5112305 L47.7237549,30.5575562 C45.8047282,29.7121379 44.5106608,29.4768066 43.8415527,29.8515625 C42.8378906,30.4136963 42.6466675,30.9789429 41.9060059,31.6896973 C41.4122314,32.1635335 40.6321411,32.9338989 39.5657349,34.0007935 C38.5757853,34.7565715 37.6789144,35.1082967 36.8751221,35.0559692 C35.6694336,34.977478 35.28479,34.7653809 35.0271606,34.5847168 C34.8554077,34.4642741 34.5800781,34.269633 34.2011719,34.0007935 Z" id="Path-5" fill="#E9E9E9" style="mix-blend-mode: multiply;"></path>
                                </g>
                            </g>
                        </g>
                    </g>
                </g>
            </g>
        </g>
    </g>
</svg>