<?xml version="1.0" encoding="UTF-8"?>
<svg width="148px" height="206px" viewBox="0 0 148 206" version="1.1" xmlns="http://www.w3.org/2000/svg" xmlns:xlink="http://www.w3.org/1999/xlink">
    <!-- Generator: Sketch 45.2 (43514) - http://www.bohemiancoding.com/sketch -->
    <title>pin copy</title>
    <desc>Created with Sketch.</desc>
    <defs></defs>
    <g id="001_Index" stroke="none" stroke-width="1" fill="none" fill-rule="evenodd" opacity="0.18">
        <g id="001_Index_Open:-1920-" transform="translate(-501.000000, -5866.000000)" fill-rule="nonzero" fill="#E9E9E9">
            <g id="Хранение" transform="translate(0.000000, 5264.000000)">
                <g id="1" transform="translate(501.000000, 580.000000)">
                    <g id="pin">
                        <g transform="translate(-15.000000, 22.000000)" id="Shape">
                            <path d="M81.3945825,231.322346 C79.2624516,231.322346 77.2506377,230.351415 75.9215534,228.683764 C72.8296837,224.802838 0.250490657,133.020476 0.250490657,81.1582086 C0.250490657,36.4170352 36.6534091,0.0141167629 81.3945825,0.0141167629 C126.135756,0.0141167629 162.538674,36.4170352 162.538674,81.1582086 C162.538674,132.902957 89.9622794,224.794444 86.8704097,228.680966 C85.5413254,230.348617 83.5295116,231.322346 81.3945825,231.322346 L81.3945825,231.322346 Z M81.3945825,14.0044774 C44.367694,14.0044774 14.2408513,44.1313201 14.2408513,81.1582086 C14.2408513,120.440343 64.4774384,190.403339 81.3917845,212.843877 C98.3033324,190.386551 148.548314,120.350805 148.548314,81.1582086 C148.548314,44.1313201 118.421471,14.0044774 81.3945825,14.0044774 Z M81.3945825,116.99032 C61.6345971,116.99032 45.5624708,100.918194 45.5624708,81.1582086 C45.5624708,61.3982232 61.6345971,45.3260969 81.3945825,45.3260969 C101.154568,45.3260969 117.226694,61.3982232 117.226694,81.1582086 C117.226694,100.918194 101.15177,116.99032 81.3945825,116.99032 Z M81.3945825,59.3164576 C69.3516801,59.3164576 59.5528315,69.1153062 59.5528315,81.1582086 C59.5528315,93.2011111 69.3516801,102.99996 81.3945825,102.99996 C93.437485,102.99996 103.236334,93.2011111 103.236334,81.1582086 C103.236334,69.1153062 93.437485,59.3164576 81.3945825,59.3164576 Z"></path>
                        </g>
                    </g>
                </g>
            </g>
        </g>
    </g>
</svg>