<svg xmlns="http://www.w3.org/2000/svg" width="50" height="50" viewBox="0 0 50 50">
    <path fill="#00B5DB" fill-rule="nonzero" d="M42.587 27.457h-1.764c-.692 0-1.268.511-1.37 1.176h-1.36v-2.142a2.565 2.565 0 0 0-2.35-2.552v-.767c4.556-.112 8.23-3.854 8.23-8.438 0-4.653-3.787-8.44-8.44-8.44-4.102 0-7.66 3.02-8.35 7.055h-2.17c-.691-4.035-4.224-7.055-8.292-7.055-4.654 0-8.44 3.786-8.44 8.44 0 4.584 3.673 8.326 8.23 8.437v.767a2.565 2.565 0 0 0-2.352 2.553v3.317h-.755v-.966c0-.764-.622-1.386-1.387-1.386H7.903c-.764 0-1.386.622-1.386 1.386v10.582c0 .764.622 1.386 1.386 1.386h4.115c.764 0 1.386-.621 1.386-1.386v-.966h.756v3.317a2.564 2.564 0 0 0 2.561 2.562h18.812a2.564 2.564 0 0 0 2.561-2.562v-6.844h1.36a1.387 1.387 0 0 0 1.37 1.176h1.764c.763 0 1.385-.622 1.385-1.386v-5.878c0-.765-.622-1.386-1.386-1.386zm-30.78 11.757H8.114V29.053h3.695v10.161zm2.353-2.351h-.756v-5.459h.756v5.459zM35.532 7.89a6.852 6.852 0 0 1 6.845 6.844 6.852 6.852 0 0 1-6.845 6.844 6.852 6.852 0 0 1-6.844-6.844 6.852 6.852 0 0 1 6.844-6.844zm-10.374 7.054h1.937c.101 4.02 3.087 7.47 7.052 8.14v.846h-16.04v-.846c3.965-.68 6.95-4.128 7.051-8.14zm-15.282-.21a6.852 6.852 0 0 1 6.845-6.844 6.852 6.852 0 0 1 6.844 6.844 6.852 6.852 0 0 1-6.844 6.844 6.852 6.852 0 0 1-6.845-6.844zM36.5 41.775a.967.967 0 0 1-.967.966H16.721a.967.967 0 0 1-.966-.966V26.491c0-.533.433-.966.966-.966h18.811c.533 0 .967.433.967.966v15.284zm2.939-8.44h-1.344v-3.107h1.344v3.108zm2.94 1.176h-1.345v-5.458h1.344v5.458zm-6.846-16.04a3.742 3.742 0 0 0 3.737-3.737 3.742 3.742 0 0 0-3.737-3.737 3.742 3.742 0 0 0-3.737 3.737 3.742 3.742 0 0 0 3.737 3.737zm0-5.879c1.181 0 2.142.961 2.142 2.142 0 1.18-.96 2.141-2.142 2.141-1.18 0-2.141-.96-2.141-2.141 0-1.18.96-2.142 2.141-2.142zm-14.696 27.21h-2.352c-.47 0-.798.328-.798.798 0 .47.328.797.798.797h2.352c.47 0 .798-.328.798-.797 0-.47-.328-.798-.798-.798zm8.818-7.642c-.764 0-1.386.621-1.386 1.386 0 .764.621 1.386 1.386 1.386.764 0 1.386-.622 1.386-1.386 0-.765-.622-1.386-1.386-1.386zm4.703-4.703c-.47 0-.798.328-.798.798 0 .47.328.798.798.798.47 0 .797-.328.797-.798 0-.47-.328-.798-.797-.798zm-8.818 0h-6.467c-.764 0-1.386.621-1.386 1.386v8.23c0 .764.622 1.385 1.386 1.385h6.467c.764 0 1.385-.621 1.385-1.385v-8.23c0-.765-.62-1.386-1.385-1.386zm-.21 9.406h-6.047v-7.81h6.047v7.81zm4.325-9.406c-.764 0-1.386.621-1.386 1.386 0 .764.621 1.386 1.386 1.386.764 0 1.386-.622 1.386-1.386 0-.765-.622-1.386-1.386-1.386zm-9.196-12.723a3.742 3.742 0 0 0-3.737-3.737 3.741 3.741 0 0 0-3.737 3.737 3.741 3.741 0 0 0 3.737 3.737 3.741 3.741 0 0 0 3.737-3.737zm-5.878 0c0-1.18.96-2.142 2.141-2.142 1.18 0 2.142.961 2.142 2.142 0 1.18-.96 2.141-2.142 2.141-1.18 0-2.141-.96-2.141-2.141z"/>
</svg>
