<svg xmlns="http://www.w3.org/2000/svg" width="50" height="50" viewBox="0 0 50 50">
    <g fill="#00B5DB" fill-rule="nonzero">
        <path d="M34.514 11.866H13.997a.775.775 0 0 1-.775-.776v-.839C13.222 7.356 15.587 5 18.494 5h11.522c2.907 0 5.272 2.356 5.272 5.251v.84a.775.775 0 0 1-.774.775zm-19.742-1.55h18.967v-.065c0-2.04-1.67-3.701-3.723-3.701H18.494c-2.052 0-3.722 1.66-3.722 3.701v.064zM30.016 45.529H18.494c-2.907 0-5.272-2.356-5.272-5.251v-3.322c0-.429.348-.775.775-.775h20.517c.427 0 .774.347.774.775v3.322c0 2.895-2.365 5.25-5.272 5.25zM14.772 37.73v2.547c0 2.04 1.67 3.7 3.722 3.7h11.522c2.053 0 3.723-1.66 3.723-3.7V37.73H14.772z"/>
        <circle cx="24.255" cy="40.68" r="1.48"/>
        <path d="M20.576 8.433c0 .275.223.498.498.498h6.362a.498.498 0 1 0 0-.996h-6.362a.498.498 0 0 0-.498.498zM34.514 37.73H13.997a.775.775 0 0 1-.775-.774V11.09c0-.428.348-.775.775-.775h20.517c.427 0 .774.347.774.775v25.866a.775.775 0 0 1-.774.775zm-19.742-1.55h18.967V11.867H14.772V36.18z"/>
        <path d="M29.787 28.604H18.723a.775.775 0 0 1-.774-.775v-7.612c0-.429.346-.776.774-.776h11.064c.428 0 .775.347.775.776v7.613a.775.775 0 0 1-.775.774zm-10.29-1.55h9.516v-6.062h-9.515v6.062z"/>
        <path d="M24.255 24.74a.774.774 0 0 1-.434-.134l-5.532-3.748a.776.776 0 0 1 .434-1.417h11.064a.775.775 0 0 1 .434 1.417l-5.532 3.749a.774.774 0 0 1-.434.133zm-3.007-3.748l3.007 2.037 3.007-2.037h-6.014z"/>
        <path d="M19.318 28.326l-1.19-.993 4.052-4.867 1.19.992zM29.193 28.326l-4.053-4.868 1.19-.992 4.052 4.867z"/>
    </g>
</svg>
