<svg xmlns="http://www.w3.org/2000/svg" width="50" height="50" viewBox="0 0 50 50">
    <g fill="#00B5DB" fill-rule="nonzero">
        <path d="M41.922 18.21H28.289v-1.091h.18a1.64 1.64 0 0 0 1.638-1.638v-4.722a1.64 1.64 0 0 0-1.638-1.638h-7.63a1.64 1.64 0 0 0-1.638 1.638v4.722a1.64 1.64 0 0 0 1.638 1.638h.18v1.09h-4.727c-.008-.878-.6-1.817-1.551-1.817h-.911c-.955 0-1.527.92-1.535 1.817H7.386a.909.909 0 0 0-.908.909v18.066a.91.91 0 0 0 .616.861l2.46.837a.912.912 0 0 0 .293.049h8.948a9.071 9.071 0 0 0 5.999 2.262 9.071 9.071 0 0 0 5.998-2.262h8.949c.111 0 .221-.02.325-.06l2.182-.838a.909.909 0 0 0 .583-.848V19.118a.91.91 0 0 0-.91-.909zm-20.903-7.272h7.27v4.363h-7.27v-4.363zm1.818 6.544h3.635v.727h-3.635v-.727zm-.91 2.545h15.451v17.086h-4.993a9.056 9.056 0 0 0 1.52-5.032c0-5.024-4.088-9.111-9.112-9.111-5.023 0-9.11 4.087-9.11 9.111 0 1.859.56 3.589 1.52 5.032H11.93V20.027h9.997zM8.296 36.534V20.027h1.818v17.086h-.116l-1.702-.58zm11.67.999a.908.908 0 0 0-.337-.31 7.27 7.27 0 0 1-2.128-5.142c0-4.022 3.272-7.294 7.294-7.294s7.293 3.272 7.293 7.294c0 4.021-3.271 7.294-7.293 7.294-1.853 0-3.54-.7-4.828-1.842zm21.048-.973l-1.441.553h-.377V20.027h1.818V36.56z"/>
        <path d="M24.794 25.704a6.384 6.384 0 0 0-6.377 6.377 6.384 6.384 0 0 0 6.377 6.377 6.384 6.384 0 0 0 6.377-6.377 6.385 6.385 0 0 0-6.377-6.377zm0 10.936a4.564 4.564 0 0 1-4.56-4.56 4.564 4.564 0 0 1 4.56-4.559 4.565 4.565 0 0 1 4.56 4.56 4.564 4.564 0 0 1-4.56 4.56z"/>
        <path d="M24.794 29.347a2.737 2.737 0 0 0-2.734 2.734 2.737 2.737 0 0 0 2.734 2.734 2.737 2.737 0 0 0 2.734-2.734 2.737 2.737 0 0 0-2.734-2.734zm0 3.65a.918.918 0 0 1 0-1.833.918.918 0 0 1 0 1.833zM34.651 25.661a1.82 1.82 0 0 0 1.818-1.817 1.82 1.82 0 0 0-1.818-1.818 1.82 1.82 0 0 0-1.817 1.818 1.82 1.82 0 0 0 1.817 1.817z"/>
    </g>
</svg>
