<svg xmlns="http://www.w3.org/2000/svg" width="51" height="50" viewBox="0 0 51 50">
    <g fill="#00B5DB" fill-rule="nonzero">
        <path d="M43.334 19.033a.686.686 0 0 0 0-1.372h-2.058v-2.737h2.058a.686.686 0 0 0 0-1.372h-2.058v-1.381a3.432 3.432 0 0 0-3.428-3.429h-1.381V6.686a.686.686 0 0 0-1.371 0v2.056h-2.738V6.686a.686.686 0 0 0-1.371 0v2.056H28.25V6.686a.686.686 0 0 0-1.372 0v2.056h-2.737V6.686a.686.686 0 0 0-1.371 0v2.056h-2.738V6.686a.686.686 0 0 0-1.371 0v2.056h-2.737V6.686a.686.686 0 0 0-1.372 0v2.056H13.17a3.432 3.432 0 0 0-3.429 3.429v1.381H7.686a.686.686 0 0 0 0 1.372H9.74v2.737H7.686a.686.686 0 0 0 0 1.372H9.74v2.737H7.686a.686.686 0 0 0 0 1.371H9.74v2.737H7.686a.686.686 0 0 0 0 1.372H9.74v2.737H7.686a.686.686 0 0 0 0 1.371H9.74v2.738H7.686a.686.686 0 0 0 0 1.371H9.74v1.382a3.432 3.432 0 0 0 3.429 3.428h1.382v2.057a.686.686 0 0 0 1.372 0v-2.057h2.737v2.057a.686.686 0 0 0 1.371 0v-2.057h2.738v2.057a.686.686 0 0 0 1.371 0v-2.057h2.737v2.057a.686.686 0 0 0 1.372 0v-2.057h2.737v2.057a.686.686 0 0 0 1.371 0v-2.057h2.738v2.057a.686.686 0 0 0 1.371 0v-2.057h1.38a3.432 3.432 0 0 0 3.43-3.428v-1.382h2.057a.686.686 0 0 0 0-1.371h-2.058v-2.738h2.058a.686.686 0 0 0 0-1.371h-2.058V27.25h2.058a.686.686 0 0 0 0-1.372h-2.058v-2.737h2.058a.686.686 0 0 0 0-1.371h-2.058v-2.737h2.058zm-3.43 17.816a2.06 2.06 0 0 1-2.056 2.057H13.17a2.06 2.06 0 0 1-2.057-2.057V12.17a2.06 2.06 0 0 1 2.057-2.057h24.678a2.06 2.06 0 0 1 2.057 2.057v24.678z"/>
        <path d="M36.466 12.182H14.552c-.756 0-1.371.615-1.371 1.371v21.914c0 .756.615 1.37 1.371 1.37h21.914c.756 0 1.371-.614 1.371-1.37V13.553c0-.756-.615-1.371-1.371-1.371zM14.552 35.466V13.553h21.914v21.914H14.552z"/>
    </g>
</svg>
