<svg xmlns="http://www.w3.org/2000/svg" width="50" height="50" viewBox="0 0 50 50">
    <g fill="#00B5DB" fill-rule="nonzero">
        <path d="M20.2 26.118v-1.322c-.001-.73-.593-1.32-1.322-1.322h-1.322v-1.321c0-.73-.592-1.321-1.322-1.322h-1.321c-.73 0-1.321.592-1.322 1.322v1.321h-1.322c-.73.001-1.32.593-1.321 1.322v1.322c0 .73.592 1.32 1.321 1.322h1.322v1.321c0 .73.592 1.321 1.322 1.322h1.321c.73 0 1.321-.592 1.322-1.322V27.44h1.322c.73-.001 1.32-.593 1.321-1.322zm-1.322 0h-1.71l-.66-.661.66-.66h1.71v1.32zm-3.965-3.965h1.321v1.709l-.66.66-.661-.66v-1.71zm-2.644 2.643h1.71l.66.661-.66.66h-1.71v-1.32zm3.965 3.965h-1.321v-1.709l.66-.66.661.66v1.71z"/>
        <path d="M41.341 25.36a7.261 7.261 0 0 0-.121-1.225h.063a1.964 1.964 0 0 0 1.665-.911c.37-.58.417-1.31.124-1.933a9.93 9.93 0 0 0-7.33-5.607 1.99 1.99 0 0 0-2.326 1.958v.58a7.2 7.2 0 0 0-2.35.627H28.13v-.661a1.985 1.985 0 0 0-1.982-1.983h-.66v-.66a3.308 3.308 0 0 0-3.305-3.305h-5.948a1.983 1.983 0 0 1 0-3.965h5.948a3.308 3.308 0 0 0 3.304-3.304v-.66a.66.66 0 1 0-1.322 0v.66a1.985 1.985 0 0 1-1.982 1.982h-5.948a3.304 3.304 0 1 0 0 6.609h5.948a1.985 1.985 0 0 1 1.982 1.982v.661h-.66a1.985 1.985 0 0 0-1.983 1.983v.66h-2.937a7.2 7.2 0 0 0-2.35-.627v-.579a1.99 1.99 0 0 0-2.326-1.958 9.93 9.93 0 0 0-7.33 5.607 2.005 2.005 0 0 0 .124 1.933c.362.57.99.914 1.665.911h.063a7.261 7.261 0 0 0-.12 1.225L5.392 37.998a4.33 4.33 0 0 0 7.854 3.325l6.185-9.56a.65.65 0 0 0 .082-.206c.368-.24.714-.512 1.033-.813h8.556c.32.301.665.573 1.034.813a.65.65 0 0 0 .081.207l6.185 9.559a4.33 4.33 0 0 0 7.855-3.325L41.34 25.36zm-13.212.097a5.948 5.948 0 1 1 5.948 5.948 5.954 5.954 0 0 1-5.948-5.948zm6.844-8.32a.667.667 0 0 1 .548-.15 8.607 8.607 0 0 1 6.353 4.861.681.681 0 0 1-.04.665.64.64 0 0 1-.55.3h-.443a7.279 7.279 0 0 0-6.103-4.592v-.579a.652.652 0 0 1 .235-.505zm-12.13 1.05c0-.364.296-.66.66-.66h2.644c.365 0 .66.296.66.66v.662h-3.964v-.661zm-.661 1.983h6.921a7.233 7.233 0 0 0-1.11 9.252h-6.335a7.233 7.233 0 0 0-1.11-9.252h1.634zm-6.609 11.235a5.948 5.948 0 1 1 5.948-5.948 5.954 5.954 0 0 1-5.948 5.948zm-7.206-8.591a.64.64 0 0 1-.55-.3.681.681 0 0 1-.04-.666 8.607 8.607 0 0 1 6.353-4.86.669.669 0 0 1 .783.654v.58a7.279 7.279 0 0 0-6.104 4.592h-.442zm3.77 17.791a3.008 3.008 0 0 1-5.456-2.31l2.273-9.85a7.218 7.218 0 0 0 8.436 4.042l-5.253 8.118zm30.256.238a3.01 3.01 0 0 1-4.88-.238l-5.253-8.118a7.218 7.218 0 0 0 8.437-4.042l2.273 9.85a2.99 2.99 0 0 1-.577 2.548z"/>
        <path d="M32.755 23.474a.66.66 0 0 0 .661-.66.66.66 0 0 1 1.322 0 .66.66 0 0 0 1.322 0 1.983 1.983 0 0 0-3.965 0c0 .365.295.66.66.66zM36.06 28.1a.66.66 0 0 0-1.322 0 .66.66 0 0 1-1.322 0 .66.66 0 1 0-1.321 0 1.983 1.983 0 0 0 3.965 0zM31.434 26.118a.66.66 0 1 1 0-1.322.66.66 0 0 0 0-1.322 1.983 1.983 0 0 0 0 3.966.66.66 0 0 0 0-1.322zM36.72 24.796a.66.66 0 1 1 0 1.322.66.66 0 0 0 0 1.322 1.983 1.983 0 0 0 0-3.966.66.66 0 0 0 0 1.322z"/>
    </g>
</svg>
