<svg xmlns="http://www.w3.org/2000/svg" width="12" height="12" viewBox="0 0 12 12">
    <g fill="#009CBD" fill-rule="nonzero">
        <path d="M5.974 0C2.688 0 0 2.688 0 5.974c0 3.285 2.688 5.973 5.974 5.973 3.285 0 5.973-2.688 5.973-5.973C11.947 2.688 9.26 0 5.974 0zm0 11.068C3.169 11.068.879 8.76.879 5.974.88 3.186 3.17.879 5.974.879a5.106 5.106 0 0 1 5.094 5.095 5.106 5.106 0 0 1-5.094 5.094z"/>
        <path d="M8.795 5.443L4.713 3.12a.405.405 0 0 0-.432 0 .444.444 0 0 0-.199.381v4.663c0 .15.083.299.2.382a.54.54 0 0 0 .231.066c.083 0 .15-.033.2-.066l4.082-2.323a.44.44 0 0 0 .232-.382.488.488 0 0 0-.232-.398zM4.96 7.4V4.248l2.772 1.576L4.96 7.401z"/>
    </g>
</svg>
