<svg xmlns="http://www.w3.org/2000/svg" width="28" height="28" viewBox="0 0 28 28">
    <g fill="none" fill-rule="evenodd" transform="translate(1 1)">
        <circle cx="13" cy="13" r="13" stroke="#009CBD"/>
        <path fill="#009CBD" fill-rule="nonzero" d="M13.954 6.231a.909.909 0 0 0-1.194-.015l-7.568 6.446a.546.546 0 1 0 .708.83l.953-.81v5.361c0 1.004.813 1.817 1.817 1.817h2.907a.545.545 0 0 0 .546-.545v-3.429h2.113v3.427c0 .301.244.546.545.546h2.908a1.817 1.817 0 0 0 1.817-1.818v-5.393l.932.836a.545.545 0 0 0 .727-.813l-7.21-6.44zm4.453 11.812a.727.727 0 0 1-.727.727h-2.363v-2.884a1.09 1.09 0 0 0-1.09-1.09h-2.115a1.09 1.09 0 0 0-1.09 1.09v2.882H8.658a.727.727 0 0 1-.727-.727v-6.287l5.419-4.605 5.061 4.525-.005 6.37z"/>
    </g>
</svg>
